<svg width="61" height="60" viewBox="0 0 61 60" fill="none" xmlns="http://www.w3.org/2000/svg">
<path d="M39.5225 45.7501C40.285 46.6251 41.1746 47.7501 42.0642 48.8751C44.3517 51.8751 47.91 53.5001 49.1808 51.3751C50.3246 49.0001 50.1975 44.0001 50.0704 41.3751C57.8225 31.2501 56.2975 21.0001 48.9267 16.3751C49.8162 14.0001 51.4683 9.87511 48.5454 8.75011C44.6058 7.87511 42.9537 13.2501 43.8433 15.6251C40.6742 15.6291 37.5169 16.0068 34.4392 16.7501C32.1995 17.2575 30.0252 18.0123 27.9579 19.0001C27.6503 19.147 27.3531 19.314 27.0683 19.5001C27.0683 21.0001 27.4496 20.3751 27.7037 21.0001C27.9579 21.0001 28.2121 20.8751 28.4662 20.8751C30.2697 20.5109 32.0949 20.2603 33.9308 20.1251C36.7605 19.86 39.6047 19.7765 42.4454 19.8751C42.4774 22.5789 42.8618 25.2675 43.5892 27.8751C44.7329 31.3751 47.5287 30.3751 49.0537 28.1251C50.2341 26.4056 51.2956 24.6098 52.2308 22.7501C53.3838 23.7972 54.294 25.0762 54.8996 26.5001C56.1704 30.0001 53.7558 33.7501 50.5787 36.1251C49.2093 37.1826 47.7654 38.1434 46.2579 39.0001C47.1475 36.3751 46.2579 32.8751 43.8433 32.1251C40.7933 32.0001 38.1246 35.3751 39.1412 37.7501C40.0055 39.2072 41.2874 40.3812 42.8267 41.1251C39.5125 42.4034 35.8923 42.7074 32.4058 42.0001C30.0917 41.4855 27.8657 40.6434 25.7975 39.5001C25.7975 39.5001 25.2892 39.0001 24.7808 39.8751C27.8654 43.2281 32.1422 45.2867 36.7267 45.6251C37.6544 45.7319 38.5887 45.7737 39.5225 45.7501ZM12.3267 23.3751C10.5475 25.2501 8.13291 27.3751 6.86208 29.6251C5.82625 31.4508 5.38281 33.5444 5.59124 35.6251C5.75404 35.5438 5.93785 35.5122 6.11903 35.5345C6.30021 35.5568 6.47047 35.6319 6.60791 35.7501C8.04237 33.5412 9.65744 31.451 11.4371 29.5001C12.1996 31.1251 12.835 32.7501 13.4704 34.2501C13.8517 34.7501 14.36 35.6251 15.3767 35.3751C18.8079 32.7501 18.2996 27.3751 17.7912 24.1251C20.446 22.6792 23.3215 21.6661 26.3058 21.1251C24.467 20.2311 22.4248 19.8188 20.3766 19.9283C18.3284 20.0378 16.3436 20.6653 14.6142 21.7501C14.6142 18.6251 12.835 14.8751 9.65791 15.3751C8.64124 15.6251 7.49749 15.7501 6.86208 16.7501C5.59124 18.2501 8.89541 23.7501 12.3267 23.3751Z" stroke="#554874" stroke-width="2" stroke-linecap="round" stroke-linejoin="round"/>
</svg>
