<svg width="72" height="72" viewBox="0 0 72 72" fill="none" xmlns="http://www.w3.org/2000/svg">
<path d="M35.2638 10.8449C33.3108 10.8059 31.6923 12.5399 31.6488 14.7149C31.6053 16.8929 33.1518 18.6899 35.1033 18.7289C37.0563 18.7709 38.6763 17.0384 38.7213 14.8589C38.7648 12.6824 37.2168 10.8824 35.2638 10.8449ZM45.7488 15.9419C45.4271 15.9352 45.1062 15.9757 44.7963 16.0619C42.7893 16.5959 41.1003 17.9024 39.0948 19.8569C37.2378 21.6689 35.2308 22.8149 34.2558 22.0214C31.2618 19.5854 27.4608 15.7904 25.6188 16.5149C24.3108 17.0309 24.5088 18.3599 25.5858 19.7429C27.0633 21.5939 31.2063 24.7229 30.9678 26.5334C30.5928 29.3984 29.0688 30.8384 27.5718 32.7044C26.8938 33.5504 26.7363 34.4174 26.9073 35.1059C25.5933 36.1904 24.2538 37.3799 23.0313 38.3729C21.9168 39.2789 19.6188 37.9679 17.4963 35.9024C15.2028 33.6689 13.2723 32.1779 10.9788 31.5674C7.71925 30.7034 7.26625 34.0499 10.2363 36.2024C12.3558 37.7414 14.7228 37.9829 16.2933 40.4264C17.4423 42.2144 16.8303 44.5814 15.6843 46.2569C13.8843 48.8909 11.6493 50.5769 10.8663 54.0269C10.4463 55.8794 12.0333 56.6264 14.1723 55.9739C16.6353 55.2209 17.6943 52.0979 21.3723 48.0059C21.7428 47.5949 22.3683 47.5559 22.7928 48.0569L27.6903 53.8499C28.3623 54.6119 29.0823 54.8999 29.7153 54.8594C29.3523 55.3049 28.9743 55.7474 28.5948 56.2169C26.5848 58.7219 29.1573 61.4114 31.2018 59.0909L35.4858 54.0149C35.8548 53.5769 36.4053 53.6129 36.7278 53.9729C39.9438 57.5564 40.8723 60.2924 43.0248 60.9509C44.8968 61.5239 46.2858 60.8669 45.9168 59.2424C45.3288 56.6429 43.7973 55.1834 42.3768 53.3564C42.9873 53.3669 43.6728 53.0714 44.3118 52.3469L49.2078 46.5524C49.6308 46.0514 50.2608 46.0904 50.6313 46.5014C54.3093 50.5934 55.3683 53.7164 57.8298 54.4694C59.9703 55.1234 61.5588 54.3749 61.1373 52.5224C60.3543 49.0724 58.1192 47.3819 56.3177 44.7494C55.1717 43.0754 54.5598 40.7084 55.7088 38.9219C57.2793 36.4769 59.6448 36.2369 61.7628 34.6994C64.7328 32.5454 64.2828 29.1989 61.0233 30.0644C58.7313 30.6734 56.7963 32.1644 54.5028 34.3979C52.3803 36.4634 50.0853 37.7744 48.9708 36.8684C47.1303 35.3729 44.8608 33.6344 43.1403 32.0834C42.1728 31.2134 41.4753 30.0869 40.6788 28.9244C39.6768 27.4589 39.1413 25.3844 40.1463 23.8184C41.5188 21.6794 43.5903 21.4694 45.4443 20.1224C47.7168 18.4724 47.6988 16.0184 45.7488 15.9389V15.9419ZM50.1243 24.1109C47.8908 24.0659 46.0428 26.0459 45.9918 28.5299C45.9408 31.0139 47.7108 33.0674 49.9443 33.1124C52.1778 33.1574 54.0243 31.1774 54.0768 28.6919C54.1263 26.2064 52.3578 24.1559 50.1243 24.1109ZM21.8748 25.6139C19.6428 25.6589 17.8728 27.7094 17.9238 30.1964C17.9733 32.6834 19.8258 34.6604 22.0593 34.6154C24.2913 34.5704 26.0613 32.5184 26.0103 30.0329C25.9593 27.5474 24.1098 25.5659 21.8748 25.6139ZM35.1048 30.1814C35.3358 30.1814 35.5548 30.2834 35.7078 30.4589C38.9238 34.0439 39.8478 36.7784 42.0018 37.4369C42.5763 37.6139 44.2128 39.6719 44.4858 40.0649C43.0248 40.7444 41.6628 41.8649 40.1148 43.3724C38.2578 45.1814 36.2508 46.3319 35.2758 45.5384C33.0918 43.7609 30.4803 41.2679 28.5123 40.3244C29.9703 38.6999 31.9638 36.9914 32.9418 35.7689C34.1238 34.2509 34.3758 32.7944 33.0618 32.1599L34.4613 30.5039C34.5375 30.4059 34.6344 30.326 34.7452 30.27C34.8559 30.214 34.9777 30.1832 35.1018 30.1799L35.1048 30.1814ZM36.2868 34.3604C34.3338 34.3214 32.7138 36.0554 32.6718 38.2334C32.6298 40.4114 34.1763 42.2039 36.1278 42.2474C38.0793 42.2849 39.6978 40.5524 39.7428 38.3759C39.7848 36.1979 38.2398 34.4009 36.2868 34.3619V34.3604ZM26.7828 43.4654C28.3833 45.3344 32.2203 48.3044 31.9908 50.0474C31.9003 50.7629 31.7146 51.463 31.4388 52.1294C31.3085 51.5564 31.0454 51.022 30.6708 50.5694C28.9578 48.4394 27.2163 46.7909 26.7858 43.5194L26.7828 43.4654ZM44.4063 44.8049C43.6368 46.4294 42.4758 47.6399 41.3313 49.0649C41.0523 49.4149 40.8473 49.7619 40.7163 50.1059C40.5363 49.1504 40.6338 48.1709 41.1708 47.3354C42.0453 45.9704 43.2018 45.3929 44.4063 44.8049Z" stroke="#554874" stroke-width="2" stroke-linecap="round" stroke-linejoin="round"/>
</svg>
