<svg width="60" height="60" viewBox="0 0 60 60" fill="none" xmlns="http://www.w3.org/2000/svg">
<path d="M21.4294 23.6963C20.8169 23.9475 21.5919 24.3863 22.0207 24.3888C22.2157 24.4145 22.4141 24.3924 22.5986 24.3243C22.7832 24.2563 22.9484 24.1443 23.0801 23.9981C23.2117 23.852 23.3058 23.676 23.3543 23.4853C23.4027 23.2947 23.4041 23.0951 23.3582 22.9038C22.9744 21.8225 21.1619 21.3875 19.7494 21.7288C17.7132 22.2225 16.9282 23.9038 17.7019 25.2275C18.7169 26.9675 21.7632 27.6225 24.1582 26.8913C27.1382 25.9825 28.2407 23.4388 26.9082 21.445C25.3082 19.0538 21.0207 18.18 17.6719 19.2975C13.7594 20.6038 12.3407 24.0063 14.2282 26.655C16.3932 29.69 21.9157 30.7825 26.1994 29.2813C31.0369 27.5875 32.7682 23.3313 30.3294 20.04C27.6107 16.3663 20.8657 15.0575 15.6569 16.9375C9.90442 19.0138 7.86317 24.1138 10.8444 28.045C14.1107 32.35 22.0694 33.8725 28.1944 31.6175C34.8532 29.1638 37.2032 23.225 33.6819 18.6625C29.8732 13.73 20.7094 11.9925 13.6782 14.6225C6.11567 17.45 3.45942 24.2225 7.51817 29.4113C10.0994 32.7125 15.0107 34.9275 20.3882 35.2963" stroke="#412C73" stroke-width="2" stroke-linecap="round" stroke-linejoin="round"/>
<path d="M20.3871 35.2963H54.3746V46.6H20.2996C12.0271 46.6 5.63086 41.0875 5.63086 33.8838V23.9938M11.9884 44.1975V41.3725M16.2271 45.8938V40.2413M20.4659 46.6V43.775M24.7046 46.6V40.9475M28.9421 46.6V43.775M33.1821 46.6V40.9475M37.4196 46.6V43.775M45.8971 46.6V43.775M41.6596 46.6V40.9475M50.1359 46.6V40.9475M35.3009 35.155V22.8638" stroke="#412C73" stroke-width="2" stroke-linecap="round" stroke-linejoin="round"/>
</svg>
