<svg width="50" height="50" viewBox="0 0 50 50" fill="none" xmlns="http://www.w3.org/2000/svg">
<path d="M39.6933 41.902C37.0758 44.1776 33.9656 45.8142 30.6077 46.6827C27.2498 47.5513 23.7361 47.6281 20.3435 46.907C16.9509 46.186 13.7722 44.6869 11.0578 42.5278C8.34337 40.3687 6.16753 37.6086 4.70176 34.4652C3.23598 31.3218 2.52033 27.8809 2.61121 24.4137C2.70208 20.9465 3.597 17.5478 5.22542 14.4855C6.85385 11.4232 9.17127 8.7809 11.995 6.76696C14.8188 4.75302 18.0717 3.42245 21.4975 2.88013M27.7298 2.77075C31.5332 3.23771 35.1532 4.67277 38.2435 6.93867C41.3338 9.20456 43.791 12.2255 45.3801 15.7125C46.9692 19.1995 47.6369 23.0359 47.3195 26.8547C47.0021 30.6735 45.7102 34.3471 43.5673 37.5239" stroke="#412C73" stroke-width="2" stroke-linecap="round" stroke-linejoin="round"/>
<path d="M24.9998 19.0083C21.3915 7.61453 2.155 21.5708 24.9998 35.1895ZM24.9998 19.0083C28.6081 7.61453 47.8446 21.5708 24.9998 35.1895Z" stroke="#412C73" stroke-width="2" stroke-linecap="round" stroke-linejoin="round"/>
</svg>
