<svg width="60" height="60" viewBox="0 0 60 60" fill="none" xmlns="http://www.w3.org/2000/svg">
<path d="M25.9551 10.2463L34.1938 10.1963H36.0438C36.0438 10.1963 39.2913 10.635 42.3438 14.6938C42.3438 14.6938 42.1488 15.4 45.4688 15.465C46.0688 15.465 48.0338 15.3763 49.7063 15.27C50.8026 15.205 51.7851 15.1325 52.1413 15.0913C52.2925 15.099 52.4401 15.1397 52.5738 15.2105C52.7076 15.2813 52.8242 15.3805 52.9156 15.5012C53.0069 15.6218 53.0708 15.761 53.1026 15.9089C53.1345 16.0569 53.1336 16.21 53.1001 16.3575C52.9701 17.5913 49.7063 31.52 49.7063 31.52C49.5806 31.8643 49.3281 32.1474 49.0005 32.3117C48.6729 32.476 48.2949 32.5089 47.9438 32.4038C47.2319 32.2567 46.5976 31.856 46.1588 31.2763L38.3826 21.4638L38.2038 33.4025L38.1476 37.6313L37.9851 48.4513C37.9582 48.8292 37.7823 49.181 37.4961 49.4292C37.2099 49.6775 36.8368 49.8018 36.4588 49.775L36.4426 49.7738" stroke="#412C73" stroke-width="2" stroke-linecap="round" stroke-linejoin="round"/>
<path d="M30.0703 16.3575L25.9553 10.245C25.9553 10.245 22.529 10.1975 20.7765 11.8363C19.7041 13.0425 18.4259 14.0485 17.0015 14.8075C16.2124 15.1522 15.352 15.3023 14.4928 15.245C11.7653 15.335 7.89276 15.01 7.89276 15.01C7.73209 15.0146 7.57462 15.0561 7.43255 15.1312C7.29049 15.2064 7.16762 15.3133 7.07348 15.4436C6.97934 15.5738 6.91644 15.724 6.88965 15.8825C6.86286 16.041 6.87291 16.2035 6.919 16.3575C7.0565 17.5913 10.3128 31.52 10.3128 31.52C10.5753 32.2313 11.3453 32.6175 12.074 32.4038C12.801 32.2604 13.4505 31.8563 13.9003 31.2675L21.6765 21.4625V22.275L21.9615 41.3325L22.0178 45.39L22.0678 48.475C22.1228 49.2625 22.8053 49.855 23.5928 49.8L23.609 49.7975L36.4428 49.7725" stroke="#412C73" stroke-width="2" stroke-linecap="round" stroke-linejoin="round"/>
<path d="M10.5625 15.545C10.6688 15.9025 12.5038 23.995 12.5038 23.995C12.5038 23.995 13.535 25.3513 14.5575 23.435C15.195 22.4725 15.1163 21.2025 14.3625 20.3263C14.3625 20.3263 16.7413 17.08 14.4925 15.3113M49.675 15.5138L47.1813 25.2863C47.1813 25.2863 44.6738 26.7388 45.0713 21.78C45.0713 21.78 42.8225 18.2413 45.4613 15.48M38.2038 33.4025C37.7298 33.3176 37.2425 33.347 36.7822 33.4883C36.322 33.6296 35.9021 33.8788 35.5575 34.215C35.1868 34.5343 34.7286 34.7347 34.2425 34.79C33.748 34.7895 33.26 34.9019 32.8155 35.1185C32.371 35.3351 31.9818 35.6503 31.6775 36.04C31.6155 36.1553 31.5786 36.2825 31.5694 36.4132C31.5602 36.5438 31.5789 36.6749 31.6241 36.7978C31.6694 36.9207 31.7402 37.0326 31.832 37.1261C31.9237 37.2195 32.0342 37.2925 32.1563 37.34C33.0813 37.7038 34.2025 37.6225 37.96 37.4775M21.9375 41.3163C25.8088 40.6513 26.8875 42.5738 26.8875 42.5738C30.655 43.0363 29.8588 45.35 29.8588 45.35H22.0175M38.245 22.5188H21.8075M34.1538 10.1975L30.07 16.39L26.0363 22.5188M38.2525 25.3188H21.8063M37.895 28.0938H21.855" stroke="#412C73" stroke-width="2" stroke-linecap="round" stroke-linejoin="round"/>
</svg>
