<svg width="70" height="70" viewBox="0 0 70 70" fill="none" xmlns="http://www.w3.org/2000/svg">
<path d="M9.53711 60.4367L9.72781 41.3455L15.4458 41.3989C15.2797 49.7722 25.2666 48.5962 25.2507 41.5044L30.1221 41.5492L30.0542 48.3131C36.1681 46.149 37.2068 56.0377 29.9993 53.9126L29.9314 60.6418L9.53711 60.4367Z" stroke="#554874" stroke-width="2" stroke-linecap="round" stroke-linejoin="round"/>
<path d="M53.9723 61.7729L34.8796 61.4219L34.8753 56.0679C43.2486 56.1431 41.9599 46.1691 34.8681 46.263L34.8637 41.3901L41.6277 41.3844C39.3985 35.2951 49.2757 34.1509 47.2286 41.38L53.9564 41.3757L53.9723 61.7729ZM61.1191 19.0022L51.1205 35.2676L46.1942 32.0995C50.651 25.0091 41.5887 21.2226 37.9495 27.3104L33.7456 24.5858L37.2879 18.8245C30.9328 17.5286 35.1368 8.51823 40.2206 14.0527L43.7455 8.32031L61.1191 19.0022ZM10.7754 15.0163H29.8695V20.7343C21.4948 20.652 22.7762 30.6274 29.8695 30.5393V35.4121H23.1056C25.3304 41.5043 15.4532 42.6412 17.5046 35.4121H10.7768L10.7754 15.0163Z" stroke="#554874" stroke-width="2" stroke-linecap="round" stroke-linejoin="round"/>
</svg>
