<svg width="60" height="60" viewBox="0 0 60 60" fill="none" xmlns="http://www.w3.org/2000/svg">
<path d="M24.178 31.7625C24.178 36.5088 21.193 40.4125 17.518 40.4125C13.843 40.4125 10.8555 36.5088 10.8555 31.7625V31.2275" stroke="#412C73" stroke-width="2" stroke-linecap="round" stroke-linejoin="round"/>
<path d="M49.7824 43.245C50.4386 42.5275 51.1161 41.7888 51.5099 41.33C53.1949 39.4175 53.5774 36.7375 52.5824 34.365C51.2036 31.1513 50.8211 31.1513 50.5911 27.0188C50.5161 24.6463 48.6786 22.6563 46.3036 22.4263C46.3036 22.4263 44.8499 20.6663 41.7099 20.6663C38.0349 20.6663 34.6661 22.6563 33.8249 25.7938C32.9061 29.0088 33.9774 30.3088 33.0586 32.7588C31.9874 35.5138 30.1499 37.9625 32.4461 41.4063C32.6536 41.7475 33.5524 42.6538 34.2174 43.3813M9.24861 27.6313C9.70736 20.9725 14.7611 20.8963 17.2861 21.2788C17.5174 21.355 18.2061 21.2788 18.4361 21.2788C23.0299 20.6663 25.3261 25.87 25.3261 28.1663C25.3261 29.0088 25.3261 31.075 24.1774 32.2225C24.1774 32.2225 21.5749 29.0088 21.4211 27.1725C21.4211 27.1725 12.6936 30.4625 12.0811 27.6313C12.0811 27.6313 11.4686 29.9263 10.9324 30.5388V32.835C10.9324 32.835 9.01736 30.5375 9.24861 27.6313Z" stroke="#412C73" stroke-width="2" stroke-linecap="round" stroke-linejoin="round"/>
<path d="M31.375 49.5186V47.7586C31.375 44.9274 34.2075 42.6311 37.04 42.6311C40.4087 45.4624 43.7775 45.4624 47.2225 42.6311C50.055 42.6311 52.8888 44.9261 52.8888 47.7586V49.5186M6.875 49.5186V47.7586C6.875 44.9274 9.7075 42.6311 12.54 42.6311C15.9087 45.4624 19.2775 45.4624 22.7238 42.6311C25.5563 42.6311 28.3888 44.9261 28.3888 47.7586V49.5186M35.7387 32.2999C35.7387 36.8911 38.6487 40.3349 42.0937 40.3349C45.5387 40.3349 48.4475 36.8911 48.4475 32.2986C48.4475 29.3911 47.3 27.7074 45.0025 25.4111C42.7062 27.7074 35.815 30.6149 35.815 31.7636L35.7387 32.2999Z" stroke="#412C73" stroke-width="2" stroke-linecap="round" stroke-linejoin="round"/>
<path d="M26.1306 6.03609C25.3501 6.03502 24.5852 6.25545 23.9249 6.67176C23.2647 7.08807 22.7361 7.68318 22.4005 8.38795C22.065 9.09272 21.9363 9.87823 22.0295 10.6532C22.1226 11.4282 22.4337 12.1609 22.9266 12.7661L29.5416 20.5301L36.0916 12.8431L36.1246 12.8061L36.1566 12.7661C36.5147 12.3347 36.7811 11.8349 36.9397 11.2972C37.0984 10.7595 37.1458 10.1952 37.0792 9.63853C37.0126 9.08189 36.8334 8.54464 36.5524 8.05953C36.2714 7.57442 35.8946 7.15161 35.4449 6.81687C34.9952 6.48213 34.4821 6.24247 33.9367 6.1125C33.3914 5.98253 32.8253 5.96497 32.273 6.06089C31.7206 6.15682 31.1936 6.36422 30.724 6.67044C30.2544 6.97667 29.8521 7.37532 29.5416 7.84209C29.1641 7.28599 28.6563 6.83069 28.0625 6.51589C27.4686 6.2011 26.8068 6.03638 26.1346 6.03609H26.1306Z" stroke="#412C73" stroke-width="2" stroke-linecap="round" stroke-linejoin="round"/>
</svg>
