<svg width="58" height="58" viewBox="0 0 58 58" fill="none" xmlns="http://www.w3.org/2000/svg">
<path d="M24.7663 22.1131L29.1454 29.451L37.7852 28.9776L32.1042 35.3687L35.5365 43.4167L27.7251 39.7478L21.0973 45.5471L21.8075 36.9073L14.5879 32.5282L22.991 30.6345L24.7663 22.1131ZM41.4542 12.1714L40.9807 16.3138L44.1763 18.3258L40.5073 18.9175L39.3238 22.7049L37.4301 19.391L33.5245 19.5093L36.1282 16.6688L34.8263 12.9999L38.4953 14.7752L41.4542 12.1714Z" stroke="#412C73" stroke-width="2" stroke-linecap="round" stroke-linejoin="round"/>
<path d="M29.1452 54.5419C43.1987 54.5419 54.5913 43.1494 54.5913 29.0959C54.5913 15.0425 43.1987 3.6499 29.1452 3.6499C15.0918 3.6499 3.69922 15.0425 3.69922 29.0959C3.69922 43.1494 15.0918 54.5419 29.1452 54.5419Z" stroke="#412C73" stroke-width="2" stroke-linecap="round" stroke-linejoin="round"/>
</svg>
