<svg width="69" height="69" viewBox="0 0 69 69" fill="none" xmlns="http://www.w3.org/2000/svg">
<path d="M17.6866 23.9539C16.9677 24.7951 16.5006 25.822 16.3387 26.9166C16.1768 28.0113 16.3268 29.1294 16.7715 30.1426C17.2161 31.1559 17.9374 32.0234 18.8525 32.6454C19.7677 33.2675 20.8396 33.619 21.9454 33.6596" stroke="#412C73" stroke-width="2" stroke-linecap="round" stroke-linejoin="round"/>
<path d="M17.4716 23.9509C16.8725 23.929 16.2754 24.0296 15.7166 24.2465C11.1678 26.1862 5.81619 29.375 9.59474 39.1546C9.59474 39.1546 10.5369 34.7864 13.369 34.0559L13.3719 34.0488C14.0628 34.7217 14.9085 35.2143 15.8345 35.4834C16.7606 35.7525 17.7386 35.7899 18.6825 35.5922C19.6264 35.3944 20.5072 34.9677 21.2474 34.3495C21.9876 33.7313 22.5645 32.9407 22.9273 32.0471C23.29 31.1536 23.4276 30.1845 23.3278 29.2253C23.228 28.2661 22.894 27.3462 22.3551 26.5464C21.8161 25.7467 21.0889 25.0917 20.2373 24.6391C19.3857 24.1865 18.4359 23.9502 17.4716 23.9509Z" stroke="#412C73" stroke-width="2" stroke-linecap="round" stroke-linejoin="round"/>
<path d="M16.7879 35.6802C16.3189 40.1365 11.125 46.6279 11.125 46.6279C11.125 46.6279 11.0682 51.6768 17.7897 51.6768C24.5112 51.6768 24.0494 47.4933 24.0494 46.8296C24.0494 46.166 20.1444 37.7648 19.9909 35.1572" stroke="#412C73" stroke-width="2" stroke-linecap="round" stroke-linejoin="round"/>
<path d="M17.5907 60.6494L15.9707 59.352L16.1682 51.5662M21.3081 58.6017L19.4338 57.1878L19.5432 51.5662" stroke="#412C73" stroke-width="2" stroke-linecap="round" stroke-linejoin="round"/>
<path d="M31.8965 43.4549C32.8846 43.4549 33.6856 42.6539 33.6856 41.6658C33.6856 40.6777 32.8846 39.8767 31.8965 39.8767C30.9084 39.8767 30.1074 40.6777 30.1074 41.6658C30.1074 42.6539 30.9084 43.4549 31.8965 43.4549Z" stroke="#412C73" stroke-width="2" stroke-linecap="round" stroke-linejoin="round"/>
<path d="M21.9453 41.3886C24.5127 42.7841 27.499 43.2017 30.3507 42.5638M21.2319 39.527C19.4329 38.9827 13.6109 48.4412 12.1074 49.3947" stroke="#412C73" stroke-width="2" stroke-linecap="round" stroke-linejoin="round"/>
<path d="M43.4469 23.9126C46.9793 23.9126 49.843 21.0489 49.843 17.5165C49.843 13.984 46.9793 11.1204 43.4469 11.1204C39.9144 11.1204 37.0508 13.984 37.0508 17.5165C37.0508 21.0489 39.9144 23.9126 43.4469 23.9126Z" stroke="#412C73" stroke-width="2" stroke-linecap="round" stroke-linejoin="round"/>
<path d="M43.048 23.8999C43.9465 23.042 44.5758 21.9409 44.8589 20.7312C45.142 19.5216 45.0666 18.2556 44.6421 17.088C44.2175 15.9205 43.4621 14.9018 42.4682 14.1565C41.4742 13.4112 40.2847 12.9715 39.0449 12.8911" stroke="#412C73" stroke-width="2" stroke-linecap="round" stroke-linejoin="round"/>
<path d="M52.7831 14.6518C54.9813 14.6518 56.7634 12.8698 56.7634 10.6715C56.7634 8.47322 54.9813 6.69116 52.7831 6.69116C50.5848 6.69116 48.8027 8.47322 48.8027 10.6715C48.8027 12.8698 50.5848 14.6518 52.7831 14.6518Z" stroke="#412C73" stroke-width="2" stroke-linecap="round" stroke-linejoin="round"/>
<path d="M48.5068 13.6086L49.5129 12.9351M43.6681 35.9147C43.6298 37.8757 45.9773 51.3784 54.0559 50.4548C54.8923 49.2262 55.3396 47.7745 55.3396 46.2883C55.3396 44.8021 54.8923 43.3503 54.0559 42.1218C55.0383 42.7717 56.1618 43.1773 57.3327 43.3048C58.5037 43.4324 59.6881 43.2782 60.7874 42.855C60.4037 41.2223 56.5555 37.492 56.5555 37.492C57.1982 37.8485 57.9147 38.0513 58.6489 38.0846C59.3831 38.1179 60.1151 37.9807 60.7874 37.6839C58.9798 36.7602 46.9777 30.7975 46.2843 27.721C46.0831 28.0026 45.8176 28.2321 45.5099 28.3905C45.2022 28.5488 44.8611 28.6314 44.5151 28.6314C44.169 28.6314 43.8279 28.5488 43.5202 28.3905C43.2125 28.2321 42.947 28.0026 42.7459 27.721C42.6691 28.8365 39.8995 46.2229 38.1289 48.4937C40.3983 49.0707 41.403 49.2625 42.0368 48.3019C42.6705 47.3413 43.7846 40.1849 43.6681 35.9147Z" stroke="#412C73" stroke-width="2" stroke-linecap="round" stroke-linejoin="round"/>
<path d="M40.7058 59.9188L43.4455 58.2264L42.6497 46.1973H46.8333M45.2062 62.1115L47.8607 59.9188L47.6276 47.3583M33.4414 40.7661C35.32 39.2996 39.6045 37.3726 42.2334 31.1613M46.2833 27.7209V23.2461M42.7449 27.7209V23.9538" stroke="#412C73" stroke-width="2" stroke-linecap="round" stroke-linejoin="round"/>
</svg>
