<svg width="65" height="65" viewBox="0 0 65 65" fill="none" xmlns="http://www.w3.org/2000/svg">
<path d="M38.6874 46.4776C38.6603 45.3117 40.0768 45.5663 42.2164 44.7985C48.9764 42.3718 50.0137 37.2964 49.9582 34.951C49.8728 31.4979 47.2918 28.0989 47.1902 26.2207C47.1009 24.5415 47.7265 23.3024 50.5391 23.7087C50.1713 22.6812 49.6504 21.7151 48.994 20.8433C48.0826 19.6949 46.8883 18.8093 44.983 18.812C41.76 18.812 40.697 21.7316 39.9576 23.6085C39.2183 25.4854 39.9847 26.2396 37.9792 29.082C38.2839 32.5081 38.1552 32.5419 37.6231 34.6747C36.3366 39.8206 31.7595 45.8926 29.4249 49.1914C27.0903 52.4901 25.162 54.1964 27.2434 55.8376C29.3247 57.4789 30.3133 55.1023 31.0757 53.7319C31.8381 52.3615 32.6478 50.5794 33.004 50.6864C33.3601 50.7947 33.4603 50.4575 32.5219 53.2999C31.5835 56.1437 31.811 57.3868 33.8409 57.5385C35.8721 57.6929 36.2513 56.4484 36.4057 54.3156C36.56 52.1827 36.8363 51.0168 37.1152 51.0168C37.3942 51.0168 37.47 50.6607 37.6732 53.3514C37.8763 56.0408 37.9521 57.8689 40.5413 56.9548C43.1304 56.0408 42.3423 54.5701 41.7099 53.1496C41.0775 51.7291 40.8974 50.3059 41.1737 50.1786C41.4499 50.0513 41.7831 50.7148 42.7973 52.2843C43.8116 53.8538 44.3709 55.7374 46.5294 54.2939C49.5275 52.2843 44.2246 47.041 42.3978 44.7321" stroke="#412C73" stroke-width="2" stroke-linecap="round" stroke-linejoin="round"/>
<path d="M34.3367 41.9385C31.6243 42.2459 27.2571 41.8437 26.7128 40.7455C26.0655 39.4617 27.4521 39.2261 29.0121 38.0913C29.0121 38.0913 31.6081 36.5529 31.0908 35.9747C30.5721 35.3978 28.0101 37.1799 26.7818 37.6485C25.5536 38.117 23.1486 39.2735 21.8581 36.9944C21.2798 35.9747 22.0111 35.4561 24.2617 34.9929C26.5123 34.5298 27.8584 33.8974 27.4765 33.3977C27.0946 32.8981 23.5928 34.1669 20.8221 34.1859C18.0515 34.2048 17.1862 32.9807 17.1862 31.9745C17.1862 30.9684 18.0529 31.1282 20.4755 30.9724C22.8994 30.8194 24.4472 31.051 24.3998 30.1085C24.3606 29.3583 20.8614 29.9351 18.7448 29.6074C16.6283 29.2797 13.5123 28.7042 13.5123 26.4536C13.5123 25.4921 14.0716 25.2023 15.7901 25.7616C17.5085 26.3209 22.1167 27.1469 22.1167 26.1069C22.1167 25.0669 16.1178 25.6465 12.8271 22.5685C9.53651 19.4904 11.6802 17.856 12.3342 17.856C13.3349 17.856 14.1149 19.4634 19.4896 21.1832C22.0666 22.0106 28.5206 22.6226 30.3947 23.5299C32.7415 24.6647 37.9794 29.082 37.9794 29.082M51.8664 25.985C53.2653 24.5984 54.1712 20.9232 53.4535 20.265C52.8793 19.741 50.9618 19.3577 50.7587 19.894C51.6186 18.9894 52.9091 17.0949 53.1001 16.0414C53.2923 14.9892 52.4284 13.5064 51.448 13.5226C50.4676 13.5389 50.2116 15.2627 48.2454 17.3956M43.9161 18.9325C45.4192 15.9967 46.7571 13.2586 47.4058 11.2002C48.0544 9.14191 48.4214 7.36388 49.5278 7.45055C51.0268 7.55888 52.1508 9.34909 51.5292 11.5036C50.8115 14.0034 48.741 16.6156 48.2318 17.3969" stroke="#412C73" stroke-width="2" stroke-linecap="round" stroke-linejoin="round"/>
<path d="M49.6718 32.9968C50.4978 32.3739 53.6192 28.6161 53.3443 27.4312C53.0707 26.2476 52.8663 26.1041 51.2155 25.8888C49.5648 25.6735 47.1056 25.6342 47.1896 26.2205" stroke="#412C73" stroke-width="2" stroke-linecap="round" stroke-linejoin="round"/>
</svg>
