<svg width="69" height="69" viewBox="0 0 69 69" fill="none" xmlns="http://www.w3.org/2000/svg">
<path d="M28.7296 13.1021C34.9325 21.4407 33.898 42.3897 28.7296 47.9715V13.1021ZM28.7296 13.1021C41.6853 18.5446 52.8489 32.8119 54.5727 45.4904L11.2949 50.3148C21.0802 38.3923 25.6972 29.8476 28.7296 13.1021Z" stroke="#412C73" stroke-width="2" stroke-linecap="round" stroke-linejoin="round"/>
<path d="M28.7286 13.102V9.65601L19.0115 15.7196L28.5993 13.8054M7.88195 54.7953L60.3936 48.7317C60.3936 48.7317 59.8422 58.4474 50.7448 58.4474C40.6838 58.4474 40.8913 51.6946 40.8913 51.6946C40.8913 51.6946 39.3068 57.6942 33.6553 58.554H9.3982C8.81208 58.1384 8.35762 57.5633 8.08883 56.897C7.82004 56.2307 7.74824 55.5012 7.88195 54.7953Z" stroke="#412C73" stroke-width="2" stroke-linecap="round" stroke-linejoin="round"/>
</svg>
