<svg width="60" height="60" viewBox="0 0 60 60" fill="none" xmlns="http://www.w3.org/2000/svg">
<path d="M25.4125 18.95C16.25 19.8875 9.4375 23.5375 9.4375 27.9125C9.4375 32.9875 18.65 37.1 30 37.1C41.35 37.1 50.5625 32.9875 50.5625 27.9125C50.5625 23.5375 43.7375 19.8875 34.5875 18.95" stroke="#412C73" stroke-width="2" stroke-linecap="round" stroke-linejoin="round"/>
<path d="M9.4375 33.0125C9.4375 34.8125 9.9125 37.45 11.9375 38.875C13.3625 39.8875 16.2625 38.6625 18.4375 39.35C20.2125 39.925 21.675 42.675 23.8125 42.975C25.725 43.2375 27.925 41.0125 30.0625 41.0125C32.2 41.0125 34.35 43.2375 36.3125 42.975C38.45 42.675 39.925 39.925 41.7 39.3625C43.875 38.6625 46.775 39.8875 48.2 38.875C50.2 37.45 50.7 34.8125 50.7 33.0125" stroke="#412C73" stroke-width="2" stroke-linecap="round" stroke-linejoin="round"/>
<path d="M9.4375 27.9126V44.7126C9.4375 49.7876 18.65 53.9001 30 53.9001C41.35 53.9001 50.5625 49.7876 50.5625 44.7126V27.9126" stroke="#412C73" stroke-width="2" stroke-linecap="round" stroke-linejoin="round"/>
<path d="M25.4121 17.6875V27.9125C25.4121 29.0375 27.4996 30 29.9996 30C32.4996 30 34.5871 29.075 34.5871 27.95V17.6875" stroke="#412C73" stroke-width="2" stroke-linecap="round" stroke-linejoin="round"/>
<path d="M29.9996 19.7375C32.5332 19.7375 34.5871 18.8196 34.5871 17.6875C34.5871 16.5553 32.5332 15.6375 29.9996 15.6375C27.466 15.6375 25.4121 16.5553 25.4121 17.6875C25.4121 18.8196 27.466 19.7375 29.9996 19.7375Z" stroke="#412C73" stroke-width="2" stroke-linecap="round" stroke-linejoin="round"/>
<path d="M29.4375 17.5375C29.4375 16.4125 28.125 14.9125 28.125 13.9625M28.1875 13.9625C27.8625 13 26 13.0875 26 10.5C26 7.9125 27.7625 7.125 27.7625 5C28.6094 5.43205 29.3157 6.09663 29.7983 6.9158C30.2809 7.73497 30.52 8.67477 30.4875 9.625C30.5221 10.4868 30.3274 11.3424 29.9234 12.1044C29.5193 12.8664 28.9203 13.5076 28.1875 13.9625Z" stroke="#412C73" stroke-width="2" stroke-linecap="round" stroke-linejoin="round"/>
</svg>
