<?xml version="1.0" encoding="UTF-8"?>
<!DOCTYPE svg PUBLIC "-//W3C//DTD SVG 1.1//EN" "http://www.w3.org/Graphics/SVG/1.1/DTD/svg11.dtd">
<!-- Creator: CorelDRAW 2018 (64-Bit) -->
<svg xmlns="http://www.w3.org/2000/svg" xml:space="preserve" width="279px" height="142px" version="1.1" style="shape-rendering:geometricPrecision; text-rendering:geometricPrecision; image-rendering:optimizeQuality; fill-rule:evenodd; clip-rule:evenodd"
viewBox="0 0 279 142"
 xmlns:xlink="http://www.w3.org/1999/xlink">
 <defs>
  <style type="text/css">
   <![CDATA[
    .fil2 {fill:#740000}
    .fil3 {fill:#E4E3E3}
    .fil1 {fill:#FF8339}
    .fil0 {fill:#FFF4C0}
    .fil4 {fill:#E4E3E3;fill-rule:nonzero}
   ]]>
  </style>
 </defs>
 <g id="Слой_x0020_1">
  <metadata id="CorelCorpID_0Corel-Layer"/>
  <g id="_981280928">
   <g>
    <path class="fil0" d="M229.64 22.33c12.13,0.73 19.99,3.14 28.34,9.37 2.3,1.56 4.54,3.31 6.7,5.23 4.8,5.4 7.64,9.02 10.44,15.83 7.99,19.47 2.97,38.59 -11.07,53.63l-3.5 3.08c-13.32,10.67 -31.14,13.37 -46.25,7.64 -3.8,-1.1 -7.49,-2.85 -11.46,-5.39 -1.3,-0.84 -2.22,-1.48 -3.01,-2.09 0.63,-0.67 1.25,-1.36 1.85,-2.06 2.13,1.73 4.46,3.31 7.01,4.71 2.88,1.36 5.63,2.46 7.47,2.98 42.52,11.94 77.4,-38.32 44.21,-74.02 -6.02,-5.6 -12.87,-9.54 -20.05,-11.6 -3.19,-0.69 -6.67,-1.07 -10.68,-1.23 -10.97,0.44 -19.97,3.75 -26.94,8.88 -1.13,-1.4 -2.33,-2.75 -3.6,-4.03 7.19,-5.8 15.99,-9.57 25.47,-10.63l5.07 -0.3z"/>
    <path class="fil1" d="M179.49 19.29c5.73,1.87 11.12,4.85 16.42,9.06 9.93,7.89 16.44,18.45 19.39,29.84 -1.36,1.49 -2.27,3.47 -2.75,5.93 -1,-7.41 -3.69,-14.89 -8.35,-22.05 -4.73,-7.25 -10.09,-12.41 -16.18,-16.16 -11.67,-6.63 -23.54,-9.47 -38.66,-6.13 -8.94,1.99 -16.53,5.86 -22.67,11l0 -4.83c8.12,-5.86 16.56,-9.34 27.61,-10.28 8.96,-0.76 17.46,0.47 25.19,3.62zm36.86 62.61c-1.56,9.42 -5.51,18.57 -11.92,26.49l-3.67 4.12c-16.34,15.14 -36.09,21.5 -57.88,14.52 -4.08,-1.31 -7.48,-2.8 -10.58,-4.57 -1.98,-1.03 -3.91,-2.19 -5.76,-3.46l0.01 -6.97 0.63 -0.05c2.47,2 5.18,3.84 8.14,5.49 2.39,1.33 4.8,2.44 7.22,3.36 0.68,0.23 1.36,0.46 2.06,0.67 28.25,8.47 53.67,-6.79 63.78,-29.29l0.39 -0.02c0.32,-1.07 0.63,-2.14 0.94,-3.21 1.72,-4.62 2.81,-9.5 3.16,-14.51 0.28,1.08 0.63,2.13 1.06,3.15 0.64,1.5 1.45,2.93 2.42,4.28z"/>
    <path class="fil2" d="M34.7 0.02c2.18,0.24 8.58,0.96 17.08,1.92 4.3,0.46 7.84,0.85 8.52,0.92l33.32 3.82c0.32,0.04 33.48,0.37 35.42,5.46 0.03,0.09 0.06,0.71 0.07,1.76 0.24,1.91 0.14,4.38 0.02,6.49 -0.02,6.94 -0.12,17.63 -0.25,29.66l-4.47 -0.23c-0.06,-7.92 -0.14,-18.7 -0.26,-34.47 -41.5,-4.13 -20.77,-2.06 -64.5,-6.44l0.03 -0.28 -0.03 0.28c-14.38,-1.64 -10.54,-1.2 -19.27,-2.21l-3.03 -0.3c-0.65,86.26 -0.29,44.2 -1.13,131.74 16.62,-1.65 33.24,-3.31 49.87,-4.87 7.28,-0.68 15.58,-1.61 23.23,-2.09l15.92 -2.45c-0.08,-6.26 -0.14,-11.73 -0.2,-16.58l3 -0.24c-0.16,10.4 -0.29,17.42 -0.34,17.87 -0.33,3.35 -15.54,3.59 -24.55,3.48 -3.89,0.54 -18.14,2.46 -32.72,4.36 -8.92,1.78 -18.05,3.41 -31.22,3.9 -3.21,0.36 -5.22,0.54 -5.45,0.47 -0.88,-0.29 -1.2,-0.93 -1.3,-1.78 -0.27,-2.43 -1.64,-136.78 -0.91,-138.41 0.55,-1.24 1.83,-1.92 3.15,-1.78l-0.04 0.36 0.01 0 0.03 -0.36zm93.76 83.4c-0.09,6.53 -0.18,12.84 -0.26,18.59 -1.05,2.4 -2.12,4.8 -3.19,7.22 -0.21,-18.17 -0.31,-26.69 -0.38,-33.39 1.28,2.54 2.56,5.07 3.83,7.58z"/>
    <path class="fil3" d="M267.51 68.98l0 0 0 0c-3.48,-0.19 -2.64,-0.14 -4.63,-0.25 -0.53,0 -1.09,0 -1.69,0l0 0c-0.44,-0.02 -0.23,-0.02 -0.64,-0.02l-0.01 0c-0.32,0.01 -0.17,0 -0.46,0.03l0 0c-0.09,0.01 -0.2,0.03 -0.29,0.04 0.02,-0.02 0.01,-0.02 0.02,-0.02 -0.02,-0.01 -0.01,0 -0.03,-0.02 -0.18,0.21 -0.14,0.19 -0.24,0.52l0 0c-0.08,0.53 -0.05,0.25 -0.09,0.86l0 0c0.01,1.01 -0.02,0.5 0.07,1.5l0 0c0.17,0.96 0.07,0.48 0.31,1.43l0 0c0.44,1.29 0.62,1.62 1.35,2.77l0 0c0.64,0.87 0.31,0.46 0.99,1.22l0 0c0.61,0.57 0.3,0.31 0.93,0.78 0.8,0.45 0.95,0.51 1.86,0.6l0 0c6.79,0.12 6.13,0.63 4.2,7.15l0 0c-1.8,6.05 -1.04,6.56 -8.29,5.31l0 0c-2.4,-0.72 -1.22,-0.28 -3.51,-1.29 -2.89,-1.71 -4.48,-3.02 -6.15,-5.45 -0.4,-0.36 -0.78,-0.75 -1.18,-1.15l0 0c-0.93,-1.06 -0.48,-0.52 -1.35,-1.62l0 0c-3.31,-4.73 -4.4,-9.36 -4.12,-15.1l0 0c0.23,-1.87 0.07,-0.95 0.46,-2.77l0 0c1.05,-3.36 1.87,-4.65 4.62,-6.9l0 0c1.81,-1.11 0.86,-0.61 2.82,-1.49l0 0c2.13,-0.66 1.04,-0.38 3.26,-0.82l0 0c2.71,-0.27 10.41,-0.96 11.8,1.15 0.42,0.63 1.47,4.35 1.74,5.22l0 -0.01c0.8,2.6 3.4,8.31 -1.75,8.33zm-6.17 -6.34l2.46 0.13c-0.27,-1.07 -0.53,-2.14 -0.8,-3.21 -1.29,-0.1 -0.93,-0.07 -3.91,-0.32l0 0c-3.46,-0.18 -5.78,-0.09 -8.41,2.34 -0.73,0.86 -0.38,0.41 -1.03,1.36l0 0c-1.23,2.34 -1.41,3.66 -1.6,6.28l0 0c-0.02,1.33 -0.02,0.67 0,1.98l0 0c0.08,1.29 0.03,0.65 0.16,1.93l0 0c0.19,1.25 0.08,0.63 0.32,1.87l0 0c0.29,1.23 0.14,0.62 0.48,1.83l0 0c0.39,1.17 0.18,0.59 0.63,1.74l0 0c0.45,1.05 1.09,2.44 1.73,3.39l0.38 0.57c0.31,0.3 0.61,0.6 0.94,0.9l0 0c1.9,1.56 0.93,0.83 2.89,2.19l0 0c3.43,1.92 4.99,2.37 8.93,2.18l0 0 0.05 -0.01c0.32,-1.57 0.65,-3.14 0.97,-4.71 -0.81,0.03 -1.61,-0.01 -2.73,-0.19l0 0c-3.53,-1.08 -5.17,-2.88 -7.09,-5.95l0 0c-1.74,-3.35 -2.58,-6.78 -1.32,-10.45l0 0c0.59,-1.16 0.25,-0.61 1.03,-1.67l0 0 0 0c1.08,-1.03 1.3,-1.22 2.61,-1.72 1.28,-0.38 1.99,-0.44 3.31,-0.46l0 0.25 0 0 0 -0.25zm-3.31 0.46l0 0 0 0 0 0z"/>
    <path class="fil3" d="M229.94 64.43c-0.03,0.06 -0.03,0.05 -0.15,0.17l0.01 0c-0.14,0.1 -0.07,0.05 -0.21,0.15l0.01 0c-1.26,0.7 -0.68,0.35 -1.74,1.02l0 0c-0.62,0.58 -0.37,0.27 -0.79,0.9 -0.36,0.99 -0.28,1.32 -0.16,2.4l0 -0.02c0.01,0.13 0,0.06 0.02,0.19l0 -0.04c0.02,0.13 0.01,0.06 0.03,0.19l0 -0.02 0.01 0.07c0.22,-0.11 0.45,-0.22 0.68,-0.34l0 0c1.37,-0.73 2.75,-1.48 3.79,-2.66l0 0c0.2,-0.25 0.11,-0.13 0.27,-0.37l0 0c0.06,-0.17 0.03,-0.1 0.1,-0.21l0 0c0.04,-0.02 0.04,-0.03 0.06,-0.03 0.04,-0.03 0.02,-0.02 0.09,-0.02l0 0c0.09,0 0.06,0.01 0.11,-0.02l0.01 -0.03c-0.14,-0.2 -0.32,-0.22 -0.59,-0.36l0 0c-0.4,-0.21 -0.69,-0.33 -0.95,-0.53 -0.17,-0.11 -0.35,-0.22 -0.53,-0.37l0 0c-0.03,-0.03 -0.05,-0.05 -0.07,-0.07zm-0.06 -0.5c0.03,-0.06 0.03,-0.06 0.15,-0.17 0,0 0.56,-0.28 0.56,-0.28l0 0c0.4,-0.12 0.2,-0.07 0.61,-0.16l0 0c0.5,-0.09 0.79,-0.12 1.3,-0.15l0 0c0.67,0.08 0.34,0.01 0.99,0.22l0 0c0.63,0.37 0.33,0.15 0.88,0.65l0 0 0 0c1.33,1.82 0.98,3.41 0.08,5.35 -0.65,1.08 -0.3,0.55 -1.06,1.59l0 0c-0.9,1.06 -0.42,0.54 -1.42,1.57l0 0c-0.85,0.81 -1.49,1.36 -2.4,2.1l0 0c-0.86,0.65 -0.43,0.33 -1.31,0.96 -1.79,0.78 -4.92,1.98 -5.63,-0.94l0 0c-0.09,-0.36 -0.17,-0.71 -0.23,-1.05 -0.08,-0.33 -0.14,-0.67 -0.18,-1.03 -0.31,-2.18 -0.1,-4.02 0.81,-6.37 1.31,-2.01 2.21,-2.71 3.32,-2.83 0.78,-0.16 1.49,0 2.12,0.18 0.34,0.06 0.71,0.13 1.11,0.19l0.01 0c0.03,0.04 0.06,0.06 0.08,0.08 0.05,0.01 0.09,0.01 0.14,0.01 0.03,0.03 0.06,0.06 0.07,0.08z"/>
    <path class="fil3" d="M240.67 93.83c-3.26,0.07 -2.03,0.04 -4.57,0.1 -0.26,0.02 -0.52,0.04 -0.79,0.05l0 0 -1.22 0.03 0 0c-3.01,-0.07 -4.34,-0.16 -6.27,-0.72 -0.72,-0.19 -1.42,-0.42 -2.12,-0.7 -0.25,-0.09 -0.5,-0.18 -0.77,-0.28l0 0c-2.8,-1.39 -1.44,-0.62 -4.09,-2.31l0 0c-2.55,-2 -1.32,-0.93 -3.7,-3.21l0 0c-1.37,-1.49 -1.98,-2.25 -3.12,-3.93l-0.01 0c-1.04,-1.7 -1.45,-2.49 -2.23,-4.33l0 0c-0.56,-1.54 -0.3,-0.77 -0.78,-2.34l0 0c-0.71,-2.84 -0.89,-4.42 -0.88,-7.36l0 0c0.2,-3.39 0.28,-4.29 1.34,-7.5l0 0c0.93,-2.02 0.4,-1.05 1.56,-2.91l0 0c1.86,-2.23 2.31,-2.56 4.91,-3.81l0 0c3.03,-1.02 3.82,-1.07 7.03,-1.18l0 0c2.78,0.12 1.42,0.01 4.17,0.34l0.1 -0.02 0 0c2.17,-0.12 3.45,-0.15 5.68,-0.01l0 0c1.98,0.27 1.01,0.1 2.92,0.51l0 0c1.74,0.53 0.89,0.22 2.55,0.9l0 0 0 0c1.52,0.8 0.79,0.36 2.19,1.32 1.55,1.36 1.8,1.69 2.75,3.51l0 0c0.57,1.46 0.32,0.72 0.74,2.25l0 0c0.29,1.64 0.18,0.8 0.33,2.5l0 0c0,1.93 0.05,0.97 -0.14,2.89l0 0c-0.38,1.91 -0.15,0.97 -0.71,2.83l0 0c-0.77,1.83 -0.34,0.93 -1.28,2.71l0 0c-1.13,1.74 -0.52,0.89 -1.81,2.56l0 0c-1.04,1.19 -1.72,1.9 -2.66,2.75l1.16 -0.05 0 0c4.89,-0.23 5.64,0.69 4.48,5.44l0 0 -0.46 1.91 0 0c-0.66,2.69 -0.79,7.81 -4.29,8.06l-0.01 -0.24 -0.01 0 0.01 0.24zm-5.65 -5.93c2.49,-0.06 2.4,-0.05 3.29,-0.07 0.39,-1.31 0.77,-2.63 1.16,-3.94 -0.38,0 -0.75,-0.01 -1.13,-0.01l0 0c-1.07,-0.04 -2.14,-0.08 -3.21,-0.18l0 0c-0.71,-0.08 -0.35,-0.04 -1.06,-0.13l0 0c-0.69,-0.11 -0.35,-0.05 -1.04,-0.18l0 0c-0.07,-0.01 -0.87,-0.17 -0.93,-0.19 -1.74,-0.63 -2.3,-1.41 -2.22,-2.22 -0.18,-0.83 0.24,-1.69 1.35,-2.3l0 0c0.51,-0.29 0.79,-0.44 0.98,-0.55 0.5,-0.36 1,-0.68 1.41,-0.93l0 0c1.6,-1.04 2.52,-1.69 3.99,-2.9l0 0c1.78,-1.63 3.17,-3.08 4.18,-5.33 0.43,-0.97 0.73,-1.87 0.92,-2.71 0.27,-1.46 0.24,-2.86 -0.13,-4.45 -1.34,-3.8 -5.96,-5.7 -11.05,-6.52l0 0c-0.23,-0.03 -0.8,-0.14 -1.48,-0.27 -2.87,0.28 -5.04,0.31 -8.31,1.11l0 0c-2.23,0.75 -2.76,0.93 -4.56,2.39l0 0c-2.13,2.3 -2.47,3.75 -2.91,6.83l0 0c-0.14,2.28 -0.13,3.38 0.12,5.56l0 0c0.22,1.36 0.09,0.68 0.38,2.02l0 0c0.6,2.27 1.07,3.45 2.22,5.5l0 0c0.86,1.37 1.31,1.98 2.35,3.2l0 0c3.4,3.63 6.08,5.34 10.97,6.27l0 0c1.94,0.15 2.91,0.13 4.71,0l0.01 0.24 0 0 -0.01 -0.24z"/>
    <path class="fil3" d="M192.96 65.56c-1.31,1.01 -2.49,1.55 -3.98,3.03l0 0c-0.99,1.17 -1.15,1.43 -1.75,2.84l0 0c-0.87,2.76 -0.84,5.18 -0.37,7.94 0.58,-0.01 1.02,-0.02 1.37,-0.02 1.23,-0.1 1.42,-0.08 3.44,0.03 0.04,-0.55 0.07,-1.09 0.11,-1.63l0 0c0.2,-2.89 0.09,-1.45 0.32,-4.34l0 0c0.13,-1.51 0.26,-2.99 0.42,-4.49l0 0c0.29,-2.48 0.18,-1.72 0.44,-3.36zm-0.31 -1.22c2.81,-2.26 2.65,1.55 3.05,4.73l0 0c0.34,2.96 0.63,5.85 0.88,8.82l0 0c0.53,6.31 1.41,7.24 -7.16,7.45 -0.84,0.02 -2.65,0.21 -4.3,-0.01 -0.92,-0.06 -1.71,-0.26 -2.32,-0.78 -0.51,-0.36 -0.87,-0.85 -0.98,-1.53l0 0.01 -0.02 -0.12c-0.11,-0.33 -0.19,-0.71 -0.25,-1.14l0 0c-0.1,-0.99 -0.14,-1.69 -0.15,-2.69l0 0c0.02,-0.92 0,-0.46 0.04,-1.39l0 0c0.18,-2.03 0.06,-1.03 0.36,-3l0 0c0.42,-1.84 0.18,-0.94 0.74,-2.7 0.89,-2.13 1.13,-2.59 2.64,-4.33l0 0c1.56,-1.45 1.95,-1.71 3.9,-2.59l0 0c1.52,-0.5 0.75,-0.29 2.33,-0.63l0 0c0.81,-0.06 1.03,-0.12 1.24,-0.1z"/>
    <path class="fil3" d="M209.44 81.37c3.54,-0.88 3.38,-0.51 2.66,2.82l0 0c-0.32,1.46 -0.16,0.73 -0.48,2.19l0 0c-2.09,9.01 -0.07,7.05 -10.54,7.92 -8.19,0.68 -16.38,1.29 -24.58,1.89l0 0c-11.8,0.85 -9.12,1.86 -13.4,-9.61l0 0c-2.01,-5.4 -1.61,-6.36 2.88,-6.7 -0.03,-0.37 -0.05,-0.74 -0.07,-1.12 0,-2.1 -0.03,-1.05 0.1,-3.14l0 0c0.28,-2.06 0.12,-1.04 0.5,-3.07l0 0c0.3,-1.22 0.54,-2.1 0.82,-2.95l0 -0.01c0.65,-2.1 1.49,-3.94 2.6,-5.7 0.92,-1.54 1.88,-2.74 3.38,-4.33 0.15,-0.16 0.3,-0.32 0.46,-0.49l0 0c2.22,-2.05 4,-3.41 6.1,-4.5 1.18,-0.64 2.41,-1.16 3.75,-1.6 0.38,-0.13 0.78,-0.27 1.19,-0.4l0 0c3.45,-0.9 5.27,-1.11 8.79,-1.24l0 0c2.08,-0.01 1.03,-0.02 3.16,0.03l0 0c2.27,0.1 1.13,0.04 3.45,0.2l0 0c0.93,0.07 7.19,0.46 7.81,0.74 0.2,0.09 0.36,0.26 0.5,0.5 0.77,0.64 0.85,1.79 0.73,3.99 0.16,3.95 -0.39,9.29 -0.44,10.88l0 0c-0.16,4.86 -0.07,2.43 -0.26,7.28l0 0c-0.09,2.31 -0.04,1.16 -0.15,3.47l0 0c-0.12,2.08 -0.07,1.38 -0.17,2.86 0.65,0.05 0.96,0.06 1.21,0.09zm0.45 0.95c-4.08,0.98 -3.16,0.11 -3.54,-5.61 -0.45,-6.89 -0.75,-13.82 -1.02,-20.73 -4.8,-0.13 -9.26,-0.31 -14.11,0.27l0 0c-1.53,0.24 -0.78,0.11 -2.25,0.4l0 0c-2.2,0.55 -3.01,0.82 -5.07,1.75l0 0c-1.52,0.8 -0.77,0.37 -2.24,1.27l0 0c-1.39,0.97 -0.71,0.46 -2.04,1.52l0 0c-1.58,1.43 -2.14,2.01 -3.44,3.69l0 0c-1.1,1.61 -1.52,2.37 -2.3,4.16l0 0c-0.57,1.54 -0.3,0.76 -0.79,2.33l0 0c-0.49,1.87 -0.74,2.89 -1.01,4.82l0 0c-0.11,1.16 -0.2,2.04 -0.15,3.17l0 0c0.02,0.54 0.03,1.07 0.06,1.61l0 0c0.02,0.36 0.04,0.71 0.1,1.07l0 0c0.44,2.14 -0.7,3.03 -2.26,3.37 -0.39,0.1 -0.82,0.15 -1.25,0.18 0.22,0.67 0.43,1.34 0.65,2.01l0 0 0.93 2.84 0.01 0.01 0.37 1.13c12.45,-0.29 24.88,-0.56 37.34,-0.63 0.98,-2.87 1.96,-5.72 3.01,-8.56 -0.51,-0.03 -0.78,-0.05 -1,-0.07z"/>
    <path class="fil3" d="M143.47 113.8l-0.89 0.06c-1.32,0.23 -2.81,0.23 -4.17,0.29l-1.34 0.09 0 0c-2.33,0.16 -4.66,0.32 -7,0.47 -1.68,0.17 -4.19,0.65 -6.17,0.42l-0.08 0.01 0 0c-2.09,0.13 -2.86,-0.78 -2.93,-2.11 -0.03,-0.15 -0.06,-0.31 -0.08,-0.48 -0.02,-0.24 0.1,-0.74 0.34,-1.43 0.36,-1.38 1.06,-2.89 1.67,-4.09 1.84,-4.19 4.41,-9.42 5.15,-11.04l0 0c0.65,-1.38 1.29,-2.76 1.94,-4.13 -5.86,-11.99 -11.65,-23.98 -17.4,-36.02l0 0c-0.81,-1.7 -3.62,-6.12 -2.76,-7.58 0.27,-0.86 1.51,-0.9 3.98,-0.67 4.18,0.04 10.52,0.8 13.45,1.1 0.91,0.06 1.85,0.14 2.75,0.23 5.92,0.35 4.36,-0.36 6.59,6.53l0 0c0.58,1.84 0.29,0.92 0.86,2.76l0.23 0.78c1.46,3.14 2.81,6.25 4.16,9.41 1.16,-3.4 2.33,-6.8 3.52,-10.19l0 0c0.62,-1.72 0.31,-0.86 0.93,-2.6l0 0c2.74,-7.59 0.94,-6.38 9.91,-6.11l0 0c1.45,0.05 11.52,-0.03 12.7,0.66 2.6,1.53 -0.78,6.75 -1.2,7.81 -3.11,7.85 -6.24,15.69 -9.36,23.53l-0.01 0c-1.58,3.97 -11.59,30.55 -13.19,31.71 -0.49,0.37 -1,0.53 -1.6,0.59l-0.01 -0.14 0 0 0.01 0.14zm-6.89 -5.64l4.63 -0.32 0.32 -0.74c6.52,-15.25 13.18,-30.47 19.82,-45.67l0 0c2.5,-5.71 1.87,-4.28 3.33,-7.61 -4.62,-0.33 -9.25,-0.66 -13.87,-1 -0.11,0.28 -0.16,0.4 -0.58,1.4l0 0c-1.06,2.53 -2.11,5.06 -3.15,7.6l0 0c-0.66,1.61 -0.33,0.8 -0.98,2.41l0 0c-2.57,6.25 -3.45,9.32 -4.54,8.35 -0.09,-0.07 -0.17,-0.17 -0.26,-0.3 -0.74,-1.04 -1.64,-3.83 -3.21,-8.6l0.01 0c-0.31,-0.96 -0.91,-2.72 -1.36,-4.28 -0.66,-1.26 -1.34,-2.6 -1.67,-3.41l-1.99 -4.68c-6.72,-0.12 -3.37,-0.05 -10.71,-0.22l0 0c-6.28,-0.15 -4.7,-0.11 -8.37,-0.21 2.49,4.7 4.98,9.4 7.46,14.11l0 0c1.75,3.31 0.88,1.65 2.62,4.96l0 0.01c1.84,3.49 0.92,1.74 2.76,5.23l0 0c1.83,3.46 0.92,1.73 2.74,5.2l0 0c1.82,3.45 0.91,1.73 2.73,5.18l0 0c1.52,2.87 3.72,5.05 2.58,7.7l0 0c-1.4,3.25 -2.8,6.5 -4.18,9.77l0 0c-1.9,4.48 -1.55,3.67 -2.51,5.91 2.79,-0.26 5.59,-0.53 8.38,-0.79l0.01 0.17 0 0 -0.01 -0.17z"/>
    <path class="fil3" d="M87.65 69.17c0.09,0.08 0.06,0.03 0.1,0.14l0 0c1.09,9.34 1.95,8.67 -5.73,6.28l0 0c-1.24,-0.42 -2.11,-0.71 -3.28,-1.25l0 0c-1.53,-0.83 -0.8,-0.38 -2.21,-1.32l0 0c-1.2,-1 -0.64,-0.47 -1.69,-1.59l0 0c-1.16,-1.67 -1.32,-2.06 -1.53,-4.09l0 0 -0.04 -1.76c-0.38,-4.2 -0.34,-9.96 -0.29,-14.06l-0.05 -2.43c-12.97,-0.42 -7.61,-0.24 -19.91,-0.66 0.13,10.86 0.07,5.5 0.21,18.59l0 0c0.08,1.26 0.22,2.38 0.43,3.39 0.67,2.67 1.88,4.81 3.5,6.57 1.02,0.99 2.29,1.94 3.86,2.96l0 0c3.64,1.88 6.03,2.7 9.96,4.07l0 0c3.9,1.24 7.81,2.42 11.74,3.57 2.98,0.77 4.82,1.15 5.96,1.74 2,0.81 2.11,3.2 1.96,5.56 9.09,-0.31 5.61,-0.2 15.39,-0.52 0.07,-5.16 0.14,-10.32 0.22,-15.47l0 0c0.12,-7.96 0.25,-15.9 0.39,-23.85l0 0c0.06,-3.26 0.05,-2.5 0.08,-4.32 -11.24,-0.83 -6.22,-0.45 -17.87,-1.36 -0.08,2.68 -0.04,1.42 -0.17,5.34l0 0c-0.18,5 -0.34,9.32 -0.93,14.3l0 0c-0.04,0.1 -0.02,0.06 -0.09,0.14 0,0.01 0,0.02 -0.01,0.03zm-0.1 0.14c-0.52,-0.76 -0.67,-6.24 -0.72,-7.21l0 0c-0.21,-4.62 -0.11,-2.31 -0.29,-6.93l0 0c-0.36,-9.89 -1.95,-8.93 8.14,-8.38 1.77,0.02 3.67,0.06 5.5,0.12 3.59,-0.1 9.35,-0.31 10.05,1.44 0.3,0.75 0.48,18.31 0.48,18.62l0 0c0.15,7.97 0.29,15.93 0.41,23.89l0 0c0.17,10.75 0.85,8.44 -12.9,9.28 -2.06,0.13 -7.31,0.9 -10.46,0.56 -0.59,-0.04 -1.07,-0.13 -1.45,-0.29 -0.32,-0.12 -0.57,-0.26 -0.76,-0.43 -1.02,-0.98 -1.05,-3.5 -0.99,-5.63 -3.71,-0.95 -2.04,-0.51 -7.53,-2.02l0 0c-5.49,-1.77 -2.82,-0.88 -8.01,-2.67l0 0c-4.35,-1.63 -2.26,-0.8 -6.3,-2.48l0 0c-3.23,-1.52 -1.7,-0.73 -4.61,-2.35l0 0c-3.09,-2.12 -1.63,-0.98 -4.4,-3.41l0 0c-2.34,-2.65 -1.27,-1.26 -3.21,-4.18l0 0c-1.5,-3.15 -0.86,-1.53 -1.9,-4.87l0 0c-0.08,-0.47 -0.15,-1.06 -0.21,-1.75l-0.15 -0.89c-0.17,-1.61 -0.25,-6.4 -0.18,-11.38 0.03,-6.39 0.27,-12.52 0.57,-13.21 0.98,-2.26 5.54,-1.38 7.47,-1.04 2.19,0.09 4.68,0.26 7.12,0.45 4.45,0.26 9.84,0.64 11.98,1.14 0.16,0.02 0.25,0.03 0.25,0.03 0.04,0.02 0.09,0.04 0.13,0.07 0.25,0.08 0.43,0.16 0.51,0.25 0.17,0.18 0.29,0.75 0.38,1.59 0.38,1.96 0.27,5.11 0.06,8.44 -0.14,4.98 -0.45,10.17 -0.48,11.28l0 0c0.03,0.87 -0.02,0.44 0.16,1.29l0 0c0.79,1.94 1.84,2.62 3.58,3.71l0 0c0.72,0.39 0.33,0.19 1.16,0.59l0 0c1.37,0.61 2.64,1.11 4.04,1.65l0 0c1.43,0.53 1.15,0.43 1.9,0.71 0.14,-2.42 0.1,-2.24 0.3,-3.57 0.09,-1.05 0.21,-1.98 0.36,-2.39l0 -0.03 0 0zm0 0l0 0 0 0.01 0.02 -0.03 -0.02 0.02z"/>
   </g>
   <path class="fil4" d="M21.06 134.37l0 7.62 -20.58 0 0 -7.62 2.94 0 0 3.55 4.71 0 0 -3.41 2.94 0 0 3.41 7.05 0 0 -3.55 2.94 0zm-20.58 -4.54l16.83 -1.12 -16.83 -1.56 0 -3.67 20.58 2.75 0 5.39 -20.58 2.43 0 -4.22zm20.58 -14.69l0 7.62 -20.58 0 0 -7.62 2.94 0 0 3.55 4.71 0 0 -3.41 2.94 0 0 3.41 7.05 0 0 -3.55 2.94 0zm0 -4.1l0 3.18 -20.58 0 0 -5.65 13.34 -2.09 -13.34 -0.06 0 -3.17 20.58 0 0 4.85 -16.19 2.88 0 0.06 16.19 0zm-17.64 -15.3l17.64 0 0 4.07 -17.64 0 0 2.74 -2.94 0 0 -9.55 2.94 0 0 2.74zm9.96 -6.35l0 4.99 -2.65 0 0 -4.99 2.65 0zm7.68 -1.13l-20.58 -3.06 0 -5.39 20.58 -2.46 0 4.25 -5.63 0.46 0 1.93 5.63 0.64 0 3.63zm-8.57 -4.61l0 -1.33 -8.43 0.55 0 0.11 8.43 0.67zm8.57 -10.8l0 4.07 -20.58 0 0 -7.68 2.94 0 0 3.61 17.64 0zm0 -12.21l0 7.62 -20.58 0 0 -7.62 2.94 0 0 3.55 4.71 0 0 -3.41 2.94 0 0 3.41 7.05 0 0 -3.55 2.94 0zm0 -4.88l0 4.07 -20.58 0 0 -4.07 7.45 0 0 -1.45 -7.45 0 0 -4.07 20.58 0 0 4.07 -9.84 0 0 1.45 9.84 0zm-17.64 -12.91l17.64 0 0 4.07 -17.64 0 0 2.75 -2.94 0 0 -9.56 2.94 0 0 2.74zm9.56 -8.31l0 -4.07 4.7 0c1.27,0 2.22,0.48 2.87,1.44 0.57,0.87 0.86,1.98 0.86,3.35 0,1.41 -0.28,2.52 -0.84,3.35 -0.63,0.96 -1.6,1.44 -2.91,1.44l-13.84 0c-1.27,0 -2.23,-0.48 -2.88,-1.44 -0.58,-0.87 -0.87,-1.98 -0.87,-3.35 0,-1.4 0.28,-2.52 0.85,-3.35 0.63,-0.96 1.61,-1.44 2.92,-1.44l3.91 0 0 4.07 -3.25 0c-0.39,0 -0.71,0.05 -0.97,0.14 -0.27,0.1 -0.4,0.29 -0.4,0.58 0,0.29 0.13,0.48 0.39,0.58 0.26,0.09 0.59,0.14 0.97,0.14l12.51 0c0.38,0 0.7,-0.05 0.96,-0.14 0.26,-0.1 0.39,-0.29 0.39,-0.58 0,-0.29 -0.13,-0.48 -0.39,-0.58 -0.26,-0.09 -0.57,-0.14 -0.95,-0.14l-4.03 0zm-9.56 -10.94l17.64 0 0 4.07 -17.64 0 0 2.74 -2.94 0 0 -9.56 2.94 0 0 2.75zm17.64 -3.32l-20.58 0 0 -4.8c0,-1.4 0.3,-2.52 0.89,-3.34 0.7,-0.97 1.78,-1.45 3.27,-1.45l1.55 0c1.1,0 1.93,0.19 2.49,0.55 0.67,0.44 1.13,1.28 1.38,2.51 0.16,-1.09 0.56,-1.88 1.22,-2.35 0.66,-0.47 1.78,-0.71 3.36,-0.71l1.79 0c1.72,0 2.93,0.41 3.65,1.21 0.65,0.74 0.98,1.93 0.98,3.58l0 4.8zm-13.34 -5.52l-3 0c-0.5,0 -0.84,0.07 -1.02,0.22 -0.19,0.14 -0.28,0.39 -0.28,0.74l0 0.49 5.6 0 0 -0.49c0,-0.35 -0.09,-0.6 -0.28,-0.74 -0.2,-0.15 -0.53,-0.22 -1.02,-0.22zm3.84 1.45l6.56 0 0 -0.49c0,-0.37 -0.07,-0.62 -0.2,-0.76 -0.14,-0.13 -0.4,-0.2 -0.79,-0.2l-4.58 0c-0.38,0 -0.65,0.07 -0.78,0.2 -0.14,0.14 -0.21,0.39 -0.21,0.76l0 0.49zm6.1 -6.61l-13.84 0c-1.27,0 -2.23,-0.49 -2.88,-1.45 -0.58,-0.86 -0.87,-1.98 -0.87,-3.35 0,-1.4 0.28,-2.52 0.84,-3.35 0.64,-0.96 1.6,-1.44 2.91,-1.44l13.84 0c1.27,0 2.23,0.48 2.88,1.44 0.58,0.87 0.87,1.99 0.87,3.35 0,1.41 -0.28,2.52 -0.84,3.35 -0.63,0.96 -1.6,1.45 -2.91,1.45zm-0.66 -5.52l-12.51 0c-0.38,0 -0.71,0.05 -0.97,0.14 -0.26,0.1 -0.39,0.29 -0.39,0.58 0,0.29 0.13,0.48 0.39,0.58 0.26,0.1 0.59,0.14 0.97,0.14l12.51 0c0.38,0 0.7,-0.04 0.96,-0.14 0.26,-0.1 0.39,-0.29 0.39,-0.58 0,-0.29 -0.13,-0.48 -0.39,-0.58 -0.26,-0.09 -0.58,-0.14 -0.96,-0.14z"/>
  </g>
 </g>
</svg>
