<svg width="70" height="70" viewBox="0 0 70 70" fill="none" xmlns="http://www.w3.org/2000/svg">
<path d="M16.0914 11.4521C18.2089 15.9409 21.5704 14.5015 25.9848 13.1657C43.2077 7.95361 56.2831 17.9651 57.5358 30.8553C59.5877 29.973 62.0712 31.723 61.9764 33.6596C61.8816 35.5963 60.2264 37.3026 57.5358 36.6988C57.5577 41.0388 52.3893 45.8119 61.431 49.4009C58.5829 51.1494 55.9798 53.509 51.5377 51.2705C45.4506 58.183 37.071 60.4944 26.7635 56.8034C16.0914 52.9811 12.7402 42.6371 12.1175 35.3746C10.1516 35.1238 8.11727 34.0767 8.02393 31.6267C7.9306 29.1796 10.5235 27.6192 12.7402 29.4903C12.9735 25.8211 15.2339 22.4538 17.4943 19.088C14.5193 16.4236 14.725 13.9109 16.0914 11.4521Z" stroke="#412C73" stroke-linecap="round" stroke-linejoin="round"/>
<path d="M21.3105 21.9711C28.8837 22.7994 35.6226 22.0659 40.7078 18.2305C43.3708 23.0226 46.0308 24.4488 48.6937 25.6723M45.3439 38.6078C47.2689 38.2169 47.4628 39.493 47.2908 40.244C44.4062 52.8367 27.421 51.8976 23.9983 41.8803C23.5301 40.5094 24.4853 39.6709 25.9845 39.894C32.3749 40.839 38.8499 39.9246 45.3439 38.6078Z" stroke="#412C73" stroke-linecap="round" stroke-linejoin="round"/>
<path d="M25.4974 32.0803C26.3576 32.0803 27.0549 31.383 27.0549 30.5228C27.0549 29.6626 26.3576 28.9653 25.4974 28.9653C24.6373 28.9653 23.9399 29.6626 23.9399 30.5228C23.9399 31.383 24.6373 32.0803 25.4974 32.0803Z" stroke="#412C73" stroke-linecap="round" stroke-linejoin="round"/>
<path d="M43.3329 31.8484C44.1931 31.8484 44.8904 31.1511 44.8904 30.2909C44.8904 29.4307 44.1931 28.7334 43.3329 28.7334C42.4727 28.7334 41.7754 29.4307 41.7754 30.2909C41.7754 31.1511 42.4727 31.8484 43.3329 31.8484Z" stroke="#412C73" stroke-linecap="round" stroke-linejoin="round"/>
<path d="M31.6938 34.3421C31.6938 33.0515 32.7395 32.0044 34.0301 32.0044C35.3193 32.0044 36.3649 33.0515 36.3649 34.3406L31.6938 34.3421Z" stroke="#412C73" stroke-linecap="round" stroke-linejoin="round"/>
</svg>
