<svg width="75" height="75" viewBox="0 0 75 75" fill="none" xmlns="http://www.w3.org/2000/svg">
<path d="M38.6687 7.5592L48.414 19.2529C48.5456 19.4769 48.6191 19.7303 48.6279 19.9899C48.6366 20.2495 48.5804 20.5072 48.4643 20.7396C48.3482 20.972 48.1759 21.1717 47.963 21.3205C47.7501 21.4694 47.5034 21.5627 47.2453 21.592H42.1781L53.0922 35.6248C53.2237 35.8488 53.2972 36.1021 53.306 36.3618C53.3148 36.6214 53.2585 36.8791 53.1424 37.1115C53.0263 37.3438 52.854 37.5435 52.6411 37.6924C52.4282 37.8413 52.1815 37.9346 51.9234 37.9639H42.9562L58.55 56.6748C58.6815 56.8989 58.755 57.1524 58.7637 57.4121C58.7724 57.6718 58.7161 57.9296 58.5998 58.162C58.4835 58.3945 58.311 58.5941 58.0979 58.7429C57.8848 58.8917 57.6379 58.9848 57.3797 59.0139H17.6203C17.362 58.9848 17.1151 58.8917 16.9021 58.7429C16.689 58.5941 16.5164 58.3945 16.4002 58.162C16.2839 57.9296 16.2275 57.6718 16.2362 57.4121C16.2449 57.1524 16.3184 56.8989 16.45 56.6748L32.0437 37.9639H23.0765C22.8184 37.9346 22.5717 37.8413 22.3588 37.6924C22.1459 37.5435 21.9736 37.3438 21.8575 37.1115C21.7414 36.8791 21.6852 36.6214 21.694 36.3618C21.7027 36.1021 21.7762 35.8488 21.9078 35.6248L32.8218 21.5936H27.7547C27.4963 21.5644 27.2494 21.4711 27.0363 21.3221C26.8232 21.1732 26.6507 20.9733 26.5346 20.7407C26.4184 20.5081 26.3623 20.2501 26.3713 19.9903C26.3802 19.7305 26.454 19.477 26.5859 19.2529L36.3312 7.5592C36.4776 7.39327 36.6575 7.26038 36.8592 7.16935C37.0608 7.07833 37.2795 7.03125 37.5007 7.03125C37.722 7.03125 37.9407 7.07833 38.1423 7.16935C38.344 7.26038 38.5239 7.39327 38.6703 7.5592M42.1781 59.0139V66.4092C42.1773 66.8225 42.0127 67.2187 41.7204 67.5109C41.4282 67.8032 41.032 67.9677 40.6187 67.9686H34.3812C33.9679 67.9677 33.5717 67.8032 33.2795 67.5109C32.9872 67.2187 32.8227 66.8225 32.8218 66.4092V59.0154" stroke="#412C73" stroke-linecap="round" stroke-linejoin="round"/>
</svg>
