<svg width="71" height="72" viewBox="0 0 71 72" fill="none" xmlns="http://www.w3.org/2000/svg">
<path d="M53.9129 31.7126C49.7283 31.7126 43.6696 35.9608 41.9834 36.6471C44.0399 38.8748 46.8933 40.1997 49.9221 40.3332C53.0387 40.3332 56.7854 36.8039 58.5589 33.8071C57.9911 33.1324 57.2789 32.5939 56.475 32.2314C55.6711 31.8689 54.7945 31.6916 53.9129 31.7126Z" stroke="#554874" stroke-width="2" stroke-linecap="round" stroke-linejoin="round"/>
<path d="M35.5 43.3299C29.2416 43.3299 27.0185 50.637 20.272 50.637C13.5255 50.637 6.65625 40.2089 6.65625 32.5261C6.65625 24.6569 10.0287 21.4087 14.0269 21.4087C21.266 21.4087 26.6442 28.5294 35.5 28.5294C44.3558 28.5294 49.734 21.4087 56.9731 21.4087C60.9712 21.4087 64.3437 24.6569 64.3437 32.5261C64.3437 40.2089 57.473 50.64 50.728 50.64C43.983 50.64 41.7569 43.3299 35.5 43.3299Z" stroke="#554874" stroke-width="2" stroke-linecap="round" stroke-linejoin="round"/>
<path d="M17.0875 31.7126C21.272 31.7126 27.3307 35.9608 29.0169 36.6471C26.9605 38.8748 24.1071 40.1997 21.0783 40.3332C17.9617 40.3332 14.2149 36.8039 12.4414 33.8071C13.0093 33.1324 13.7215 32.5939 14.5254 32.2314C15.3293 31.8689 16.2044 31.6916 17.086 31.7126" stroke="#554874" stroke-width="2" stroke-linecap="round" stroke-linejoin="round"/>
<line x1="64" y1="34.9326" x2="64" y2="7.00019" stroke="#554874" stroke-width="2"/>
</svg>
