<svg width="75" height="76" viewBox="0 0 75 76" fill="none" xmlns="http://www.w3.org/2000/svg">
<path d="M44.036 47.0071L44.8485 47.8196V50.5228L61.2563 66.929L66.3813 61.7868L49.9735 45.3806H47.2547L46.4422 44.5837C53.7235 36.0446 53.2188 23.3446 45.286 15.4087C36.8844 7.01807 23.2766 7.01807 14.875 15.4087L14.861 15.4259C7.0016 23.3462 6.50317 35.9618 13.7094 44.479C21.386 53.5509 34.9641 54.6837 44.036 47.0071ZM44.036 47.0071L46.4579 44.5993" stroke="#554874" stroke-width="1.875" stroke-linecap="round" stroke-linejoin="round"/>
<path d="M37.7308 22.7161C36.0153 25.0489 36.8773 26.2227 39.6553 25.3316C40.1532 26.2979 40.4945 27.3354 40.6667 28.4063C37.8903 29.2974 37.8886 30.7481 40.6667 31.6393C40.4946 32.7104 40.1533 33.7483 39.6553 34.7148C36.8781 33.8229 36.0145 34.9959 37.7308 37.3295C36.9543 38.096 36.0608 38.7375 35.0829 39.2303C33.3674 36.8967 31.9699 37.3444 31.9699 40.2293C30.8856 40.3984 29.7811 40.3984 28.6967 40.2293C28.6967 37.3452 27.3001 36.8967 25.583 39.2303C24.6053 38.7374 23.7121 38.096 22.9358 37.3295C24.6513 34.9967 23.7894 33.8229 21.0113 34.714C20.5134 33.7477 20.1722 32.7102 20 31.6393C22.7764 30.7481 22.778 29.2974 20 28.4063C20.1721 27.3351 20.5134 26.2973 21.0113 25.3307C23.7886 26.2227 24.6522 25.0497 22.9358 22.7161C23.7124 21.9495 24.6059 21.3081 25.5838 20.8152C27.3001 23.148 28.6967 22.7012 28.6967 19.8163C29.7811 19.6472 30.8856 19.6472 31.9699 19.8163C31.9699 22.7004 33.3665 23.1488 35.0837 20.8152C36.0613 21.3082 36.9546 21.9496 37.7308 22.7161Z" stroke="#554874" stroke-width="2" stroke-linecap="round" stroke-linejoin="round"/>
<path d="M30.3332 33.6898C32.3582 33.6898 33.9998 32.0482 33.9998 30.0231C33.9998 27.9981 32.3582 26.3564 30.3332 26.3564C28.3081 26.3564 26.6665 27.9981 26.6665 30.0231C26.6665 32.0482 28.3081 33.6898 30.3332 33.6898Z" stroke="#554874" stroke-width="2" stroke-linecap="round" stroke-linejoin="round"/>
<circle cx="30" cy="30.5229" r="17.5" stroke="#554874" stroke-width="2"/>
</svg>
