<svg width="61" height="62" viewBox="0 0 61 62" fill="none" xmlns="http://www.w3.org/2000/svg">
<path d="M42.4588 25.7238C41.9644 21.7793 42.5303 17.7742 44.0981 14.1211C44.3269 13.6636 44.759 13.1298 44.3269 12.6342C43.8948 12.1386 43.2975 12.4817 42.7892 12.6342C41.4786 13.0155 40.2612 13.6639 39.2135 14.5388C38.1659 15.4136 37.3107 16.4959 36.7019 17.7175C36.3588 18.3148 36.1173 18.9121 35.1896 18.785C32.0584 18.3768 28.8916 18.3171 25.7473 18.6071C23.3894 18.75 21.087 19.3818 18.9865 20.4625C15.748 22.2452 13.2083 25.0715 11.7808 28.4815C11.7116 28.3138 11.6604 28.1391 11.6283 27.9605C11.2725 26.3084 10.3575 25.4188 8.92147 25.6348H8.89606C8.56837 25.6761 8.25255 25.7838 7.96793 25.9513C7.68331 26.1189 7.43588 26.3427 7.24077 26.6092C7.04567 26.8757 6.907 27.1792 6.83325 27.5011C6.75951 27.8231 6.75224 28.1567 6.81189 28.4815C6.73518 29.8878 7.00031 31.2917 7.58459 32.5731C8.16888 33.8545 9.05491 34.9753 10.1669 35.8396C10.5718 36.1169 10.8611 36.5328 10.9802 37.0088C11.7272 40.1533 13.4538 42.9791 15.9111 45.0786C16.3553 45.4422 16.7034 45.9093 16.925 46.4388C17.1466 46.9684 17.2348 47.5443 17.1819 48.1159C16.8388 51.5725 18.2113 53.3263 21.9729 53.8346C22.262 53.9025 22.5548 53.9534 22.8498 53.9871C25.3915 54.5082 25.1119 54.4955 25.5821 52.1825C25.8998 50.6321 26.5225 50.1746 28.1238 50.4161C29.4204 50.594 30.7301 50.6578 32.0379 50.6067C35.1769 50.6067 35.1896 50.6067 36.0411 53.5423C36.1936 54.0761 36.3079 54.6607 37.0577 54.5209C38.7973 54.3556 40.507 53.9581 42.1411 53.339C42.7612 53.129 43.3031 52.7362 43.6956 52.2121C44.088 51.6881 44.3126 51.0575 44.3396 50.4034C44.0727 47.6965 44.9496 46.5909 46.5763 44.5702C46.805 44.3034 47.2879 43.8332 47.5548 43.4519C48.0354 42.6884 48.6928 42.0518 49.4715 41.5962C50.2501 41.1405 51.1271 40.879 52.0281 40.834C53.5658 40.7577 54.2521 40.2875 54.2521 38.5211V33.1836C54.3093 32.6315 54.1466 32.0791 53.7993 31.6462C53.452 31.2132 52.948 30.9346 52.3967 30.8707C51.5271 30.6973 50.7137 30.3119 50.0287 29.7489C49.3437 29.1858 48.8082 28.4624 48.4698 27.6427C47.1192 24.9946 45.0374 22.7894 42.4715 21.2886M44.5429 35.0898C43.9415 35.0538 43.379 34.7807 42.9787 34.3304C42.5785 33.8801 42.3732 33.2894 42.4079 32.688C42.4408 32.0967 42.7067 31.5427 43.1474 31.1472C43.5881 30.7517 44.1677 30.5472 44.759 30.5784C45.0672 30.5803 45.3718 30.6449 45.6543 30.7682C45.9368 30.8915 46.1913 31.0709 46.4024 31.2955C46.6134 31.5201 46.7766 31.7853 46.882 32.0749C46.9875 32.3646 47.033 32.6726 47.0157 32.9804C46.9985 33.2881 46.9189 33.5891 46.7817 33.8652C46.6446 34.1412 46.4528 34.3865 46.218 34.5862C45.9832 34.7858 45.7102 34.9357 45.4157 35.0266C45.1212 35.1176 44.8113 35.1477 44.5048 35.1152L44.5429 35.0898Z" stroke="#554874" stroke-width="2" stroke-linecap="round" stroke-linejoin="round"/>
<path d="M21.5279 19.3569C20.5028 18.6943 19.7054 17.7336 19.2428 16.604C18.7803 15.4745 18.6749 14.2303 18.9409 13.0391C19.2068 11.8479 19.8314 10.7667 20.7304 9.94114C21.6294 9.11559 22.7598 8.58529 23.9694 8.42162C25.1789 8.25795 26.4096 8.46878 27.4957 9.02571C28.5818 9.58265 29.4712 10.459 30.0442 11.5367C30.6171 12.6144 30.8462 13.8418 30.7005 15.0536C30.5548 16.2655 30.0413 17.4036 29.2292 18.3148" stroke="#554874" stroke-width="2" stroke-linecap="round" stroke-linejoin="round"/>
</svg>
