<svg width="64" height="64" viewBox="0 0 64 64" fill="none" xmlns="http://www.w3.org/2000/svg">
<path d="M32.0934 41.0638C36.0979 41.0638 39.3441 37.8176 39.3441 33.8132C39.3441 29.8087 36.0979 26.5625 32.0934 26.5625C28.089 26.5625 24.8428 29.8087 24.8428 33.8132C24.8428 37.8176 28.089 41.0638 32.0934 41.0638Z" stroke="#412C73" stroke-linecap="round" stroke-linejoin="round"/>
<path d="M32.0932 21.2572C35.6315 21.2572 38.4999 18.3888 38.4999 14.8505C38.4999 11.3122 35.6315 8.44385 32.0932 8.44385C28.5549 8.44385 25.6865 11.3122 25.6865 14.8505C25.6865 18.3888 28.5549 21.2572 32.0932 21.2572Z" stroke="#412C73" stroke-linecap="round" stroke-linejoin="round"/>
<path d="M13.7402 34.0721C17.2785 34.0721 20.1468 31.2038 20.1468 27.6655C20.1468 24.1272 17.2785 21.2588 13.7402 21.2588C10.2019 21.2588 7.3335 24.1272 7.3335 27.6655C7.3335 31.2038 10.2019 34.0721 13.7402 34.0721Z" stroke="#412C73" stroke-linecap="round" stroke-linejoin="round"/>
<path d="M50.2602 34.0721C53.7985 34.0721 56.6669 31.2038 56.6669 27.6655C56.6669 24.1272 53.7985 21.2588 50.2602 21.2588C46.7219 21.2588 43.8535 24.1272 43.8535 27.6655C43.8535 31.2038 46.7219 34.0721 50.2602 34.0721Z" stroke="#412C73" stroke-linecap="round" stroke-linejoin="round"/>
<path d="M20.5532 55.556C24.0915 55.556 26.9598 52.6876 26.9598 49.1493C26.9598 45.611 24.0915 42.7427 20.5532 42.7427C17.0148 42.7427 14.1465 45.611 14.1465 49.1493C14.1465 52.6876 17.0148 55.556 20.5532 55.556Z" stroke="#412C73" stroke-linecap="round" stroke-linejoin="round"/>
<path d="M42.8798 55.556C46.4181 55.556 49.2865 52.6876 49.2865 49.1493C49.2865 45.611 46.4181 42.7427 42.8798 42.7427C39.3415 42.7427 36.4731 45.611 36.4731 49.1493C36.4731 52.6876 39.3415 55.556 42.8798 55.556Z" stroke="#412C73" stroke-linecap="round" stroke-linejoin="round"/>
<path d="M47.8575 21.7334C45.4777 18.6083 42.221 16.2628 38.5028 14.9961M25.8881 52.6894C27.8388 53.3428 29.9255 53.6841 32.0935 53.6841C33.9862 53.6893 35.8696 53.4185 37.6841 52.8801M12.2241 33.8828C12.2305 37.8502 13.4325 41.7235 15.6735 44.9974M48.1441 45.5161V45.5028C50.6295 42.1236 51.9677 38.0375 51.9628 33.8428M25.6841 14.9961C21.9478 16.2773 18.677 18.6411 16.2881 21.7868M27.8361 39.6788L24.4321 44.0574M44.2108 29.7708L38.9495 31.4614M32.0935 21.2574L32.3561 26.5694" stroke="#412C73" stroke-linecap="round" stroke-linejoin="round"/>
</svg>
