<svg width="70" height="70" viewBox="0 0 70 70" fill="none" xmlns="http://www.w3.org/2000/svg">
<path d="M55.9836 43.1606C55.9836 43.1606 21.6268 45.1206 14.4736 44.0969" stroke="#412C73" stroke-linecap="round" stroke-linejoin="round"/>
<path d="M52.0219 43.3735C51.9811 43.394 49.7979 44.3506 55.1719 57.9131M55.1704 57.9117C55.1704 57.9117 41.0713 59.561 33.1511 61.0471C20.3148 63.4577 12.1934 60.4302 12.1934 60.4302C11.6264 56.4114 12.4883 52.3212 14.6288 48.8729C15.4462 47.2576 16.4332 45.7338 17.5731 44.3273" stroke="#412C73" stroke-linecap="round" stroke-linejoin="round"/>
<path d="M13.8906 50.2864C13.8906 50.2864 9.59436 50.2397 9.69207 43.8552C9.79415 37.2927 15.6158 41.2666 31.4752 39.9672C43.3839 38.9902 59.8792 38.6737 60.6069 41.8558C60.6069 41.8558 62.2883 49.181 57.2629 49.1081C52.2375 49.0352 52.5146 50.2864 52.5146 50.2864" stroke="#412C73" stroke-linecap="round" stroke-linejoin="round"/>
<path d="M10.4138 41.1279C10.4138 41.1279 7.08733 20.9737 9.30108 15.852C11.5148 10.7304 21.0669 14.2158 26.0996 13.2285C31.1323 12.2412 54.6538 9.54328 57.9496 13.8672C61.2455 18.1912 62.0884 18.4624 61.0267 31.7683C60.6957 40.5022 60.6067 41.8556 60.6067 41.8556" stroke="#412C73" stroke-linecap="round" stroke-linejoin="round"/>
<path d="M10.6793 14.1369C10.6793 14.1369 9.23994 8.34439 14.0131 8.29044C18.7862 8.23648 23.4981 6.34502 22.5458 13.3844M35.6504 32.8444C33.8756 33.2192 29.0995 33.8215 28.3864 28.5423C27.5289 22.1927 37.8874 20.189 39.2408 26.0909C40.4074 31.1804 36.6916 32.6242 35.6504 32.8444Z" stroke="#412C73" stroke-linecap="round" stroke-linejoin="round"/>
<path d="M58.9691 15.1958L49.0247 15.9498C49.4278 17.1906 49.562 18.503 49.4184 19.7998C49.1559 21.2143 61.1813 19.7429 61.1813 19.7429M39.0905 19.0458C40.982 20.561 44.1961 22.9118 44.1947 27.9446C44.1932 32.9773 39.1489 36.8725 35.5118 37.1758C31.9928 37.4704 24.8091 35.6679 24.5538 28.331C24.3468 22.3416 26.8609 19.4264 31.4022 18.1898C34.6572 17.3045 37.2005 17.5306 39.0905 19.0458Z" stroke="#412C73" stroke-linecap="round" stroke-linejoin="round"/>
<path d="M32.002 44.2357L31.6957 39.9467M39.9003 39.9467L40.2722 44.2225M30.2024 18.5748L30.0332 12.6248M39.0909 19.0459L38.0074 11.8198" stroke="#412C73"/>
<path d="M15.7293 36.8082C16.96 36.8082 17.9576 35.8106 17.9576 34.5799C17.9576 33.3492 16.96 32.3516 15.7293 32.3516C14.4986 32.3516 13.501 33.3492 13.501 34.5799C13.501 35.8106 14.4986 36.8082 15.7293 36.8082Z" stroke="#412C73" stroke-linecap="round" stroke-linejoin="round"/>
<path d="M55.0037 36.8082C56.2344 36.8082 57.2321 35.8106 57.2321 34.5799C57.2321 33.3492 56.2344 32.3516 55.0037 32.3516C53.773 32.3516 52.7754 33.3492 52.7754 34.5799C52.7754 35.8106 53.773 36.8082 55.0037 36.8082Z" stroke="#412C73" stroke-linecap="round" stroke-linejoin="round"/>
</svg>
