<svg width="64" height="65" viewBox="0 0 64 65" fill="none" xmlns="http://www.w3.org/2000/svg">
<path d="M27.4666 30.9231L33.4666 37.3231M30.5333 33.8564L39.3333 25.1897M46.4 11.9897L52.6666 17.9897M49.6 15.0564L44.6666 19.7231M24.1333 40.3897L27.4666 30.7897L49.7333 8.52308C50.1949 8.17689 50.7563 7.98975 51.3333 7.98975C51.9103 7.98975 52.4717 8.17689 52.9333 8.52308L55.8666 11.4564C56.2616 11.9552 56.4652 12.5787 56.4408 13.2144C56.4163 13.8501 56.1654 14.4561 55.7333 14.9231L33.4666 37.1897L24.1333 40.3897Z" stroke="#554874" stroke-width="2" stroke-linecap="round" stroke-linejoin="round"/>
<path d="M42.0001 22.923C42.221 22.923 42.4001 22.744 42.4001 22.523C42.4001 22.3021 42.221 22.123 42.0001 22.123C41.7792 22.123 41.6001 22.3021 41.6001 22.523C41.6001 22.744 41.7792 22.923 42.0001 22.923Z" stroke="#554874" stroke-width="2" stroke-linecap="round" stroke-linejoin="round"/>
<path d="M21.1998 22.1228C21.4207 22.1228 21.5998 21.9437 21.5998 21.7228C21.5998 21.5018 21.4207 21.3228 21.1998 21.3228C20.9789 21.3228 20.7998 21.5018 20.7998 21.7228C20.7998 21.9437 20.9789 22.1228 21.1998 22.1228Z" stroke="#554874" stroke-width="2" stroke-linecap="round" stroke-linejoin="round"/>
<path d="M45.6 25.5895C47.1856 28.7691 47.6114 32.4025 46.8039 35.8625C45.9965 39.3226 44.0066 42.3922 41.1775 44.5417C38.3484 46.6912 34.8577 47.7856 31.3079 47.6361C27.758 47.4866 24.3717 46.1026 21.7334 43.7228C19.092 41.3603 17.3549 38.1526 16.8197 34.6495C16.2845 31.1464 16.9846 27.5662 18.8 24.5228M24.1334 19.1895C26.3801 17.8503 28.9331 17.1102 31.5478 17.0401C34.1625 16.9701 36.7514 17.5725 39.0667 18.7895" stroke="#554874" stroke-width="2" stroke-linecap="round" stroke-linejoin="round"/>
<path d="M43.0667 32.3896C43.0367 35.3229 41.8928 38.1351 39.8667 40.2563C38.8482 41.314 37.6262 42.1546 36.2742 42.7275C34.9223 43.3003 33.4683 43.5936 32 43.5896" stroke="#554874" stroke-width="2" stroke-linecap="round" stroke-linejoin="round"/>
<path d="M43.3335 14.9231L36.6668 12.2564L35.7335 7.98975H28.2668L27.2002 12.2564L21.0668 14.6564L17.0668 12.5231L12.0002 17.7231L14.2668 21.5897L11.8668 27.7231L7.3335 28.7897V36.3897L11.6002 37.4564L14.2668 43.4564L11.8668 47.1897L17.3335 52.6564L20.9335 50.3897L27.2002 52.7897L28.2668 57.1897H35.8668L37.0668 52.5231L42.8002 50.3897L46.9335 52.6564L52.1335 47.4564L50.0002 43.4564L52.4002 37.4564L56.6668 36.2564V28.9231L51.8668 27.5897L49.4668 21.3231M26.1335 34.3897L29.8668 38.5231" stroke="#554874" stroke-width="2" stroke-linecap="round" stroke-linejoin="round"/>
</svg>
