<svg width="70" height="71" viewBox="0 0 70 71" fill="none" xmlns="http://www.w3.org/2000/svg">
<path d="M47.3741 54.6459C43.0881 58.0147 37.7946 59.8461 32.3431 59.8463C18.9089 59.8463 8.01953 48.9569 8.01953 35.5213C8.01953 22.0901 18.9089 11.1992 32.3445 11.1992C45.7758 11.1992 56.6666 22.0886 56.6666 35.5228C56.6665 37.4756 56.4315 39.4214 55.9666 41.3182M38.6387 12.029L26.0489 59.0165M8.84932 29.2271L41.4577 37.9655M15.1449 18.3232L55.8383 29.2271M8.84932 41.8198L39.257 49.9676" stroke="#554874" stroke-width="1.875" stroke-linecap="round" stroke-linejoin="round"/>
<path d="M38.8791 49.1774C35.5628 53.5116 31.1149 56.9853 26.0487 59.0183C20.246 51.6245 18.1649 41.4541 20.5974 32.3745C23.0299 23.2978 29.9176 15.5293 38.6399 12.0293C43.9337 18.7755 46.1314 27.8362 44.6264 36.2668" stroke="#554874" stroke-width="1.875" stroke-linecap="round" stroke-linejoin="round"/>
<path d="M47.3857 54.6371C52.5855 54.6371 56.8007 50.4219 56.8007 45.2221C56.8007 40.0224 52.5855 35.8071 47.3857 35.8071C42.1859 35.8071 37.9707 40.0224 37.9707 45.2221C37.9707 50.4219 42.1859 54.6371 47.3857 54.6371Z" stroke="#554874" stroke-width="1.875" stroke-linecap="round" stroke-linejoin="round"/>
<path d="M47.3856 51.0558C50.6072 51.0558 53.2189 48.4442 53.2189 45.2225C53.2189 42.0008 50.6072 39.3892 47.3856 39.3892C44.1639 39.3892 41.5522 42.0008 41.5522 45.2225C41.5522 48.4442 44.1639 51.0558 47.3856 51.0558Z" stroke="#554874" stroke-width="1.875" stroke-linecap="round" stroke-linejoin="round"/>
<path d="M55.5582 53.379L54.0503 51.8726M54.5388 54.3999L59.9857 59.8467L61.9807 57.8517L56.5338 52.4049L54.5388 54.3999Z" stroke="#554874" stroke-width="1.875" stroke-linecap="round" stroke-linejoin="round"/>
</svg>
