<svg width="77" height="71" viewBox="0 0 77 71" fill="none" xmlns="http://www.w3.org/2000/svg">
<path d="M32.5 48.6483C32.5 48.6483 43.2684 48.8691 48.4846 46.2352C50.3304 45.3022 50.6147 44.3881 50.6147 44.3881C50.8585 40.8212 52.3521 29.7767 47.1576 24.207C42.1702 18.858 36.721 19.1627 32.5 18.9189C28.2791 19.1627 22.8313 18.8567 17.8425 24.2056C12.648 29.7753 14.1416 40.8212 14.3867 44.3868C14.3867 44.3868 14.6711 45.3008 16.5155 46.2338C21.7317 48.8691 32.5 48.6483 32.5 48.6483Z" stroke="#412C73" stroke-linecap="round" stroke-linejoin="round"/>
<path d="M50.8597 34.1898C50.0892 41.2085 37.9924 41.3263 32.4999 41.3263C27.0074 41.3263 14.9093 41.2085 14.1401 34.1885" stroke="#412C73" stroke-linecap="round" stroke-linejoin="round"/>
<path d="M50.9965 38.0358C53.3933 37.8421 56.4863 37.0905 57.9433 38.8022C59.0835 40.1455 60.4039 45.1573 54.2058 50.0892C48.299 54.7881 39.2883 55.5898 32.4999 55.7117C25.7115 55.5898 16.7008 54.7868 10.794 50.0878C4.59594 45.156 5.91625 40.1442 7.05646 38.8009C8.51354 37.0892 11.6065 37.8408 14.0033 38.0344" stroke="#412C73" stroke-linecap="round" stroke-linejoin="round"/>
<path d="M58.0009 19.3206L61.2102 16.1113M75.8334 30.8166L59.9012 14.7959L63.4311 14.0719L58.9055 9.54537L60.8067 3.48051L54.5604 5.2003L50.3065 0.583496L48.8575 6.55808L42.4307 7.91586L47.1377 12.4424L45.0559 18.5975L51.3925 16.7875L55.7376 21.4945L56.7334 18.055L72.5744 33.8951C73.8419 34.0757 75.6529 31.9036 75.8334 30.8166Z" stroke="#412C73" stroke-linecap="round" stroke-linejoin="round"/>
</svg>
