<svg width="25" height="24" viewBox="0 0 25 24" fill="none" xmlns="http://www.w3.org/2000/svg">
<path d="M11.0101 0.864853C11.138 0.605281 11.336 0.386701 11.5818 0.233855C11.8275 0.0810082 12.1111 0 12.4004 0C12.6898 0 12.9734 0.0810082 13.2191 0.233855C13.4649 0.386701 13.6629 0.605281 13.7908 0.864853L16.7823 6.92535L23.4736 7.89875C23.7599 7.94033 24.0289 8.06119 24.25 8.24766C24.4712 8.43414 24.6358 8.67879 24.7251 8.95393C24.8145 9.22908 24.825 9.52373 24.7556 9.80457C24.6862 10.0854 24.5396 10.3412 24.3323 10.5431L19.4901 15.2613L20.634 21.9263C20.6829 22.2113 20.651 22.5043 20.542 22.7722C20.433 23.0401 20.2512 23.2721 20.0173 23.4421C19.7833 23.612 19.5064 23.7132 19.218 23.734C18.9295 23.7548 18.641 23.6945 18.385 23.56L12.402 20.4135L6.4159 23.56C6.15984 23.6942 5.87133 23.7542 5.58296 23.7331C5.29459 23.7121 5.01787 23.6107 4.78407 23.4406C4.55027 23.2705 4.36872 23.0384 4.25992 22.7705C4.15112 22.5026 4.11942 22.2097 4.1684 21.9247L5.31075 15.2613L0.468549 10.5431C0.26131 10.3412 0.11469 10.0854 0.0452789 9.80457C-0.0241325 9.52373 -0.0135661 9.22908 0.075783 8.95393C0.165132 8.67879 0.329698 8.43414 0.550863 8.24766C0.772028 8.06119 1.04097 7.94033 1.32725 7.89875L8.0186 6.9269L11.0101 0.864853Z" fill="#EFBF84"/>
</svg>
