<svg width="65" height="65" viewBox="0 0 65 65" fill="none" xmlns="http://www.w3.org/2000/svg">
<path d="M42.3217 16.1187C39.4847 14.2527 36.2577 13.0621 32.8886 12.6385C29.929 12.2432 26.9205 12.4394 24.0373 13.2157C21.1541 13.992 18.4538 15.3329 16.0928 17.1606C13.7318 18.9884 11.7571 21.2667 10.2832 23.8634C8.80934 26.4601 7.86563 29.3236 7.50678 32.2878C7.14793 35.2519 7.38109 38.2579 8.19273 41.1313C9.00437 44.0047 10.3783 46.6884 12.235 49.0267C14.0917 51.3651 16.394 53.3116 19.0087 54.7535C21.6233 56.1953 24.4981 57.1038 27.4665 57.4262C29.8595 57.6912 32.2794 57.577 34.6368 57.0876C35.5431 56.8941 36.3803 56.4595 37.0603 55.8299C37.7402 55.2002 38.2376 54.3987 38.5001 53.5099C38.7626 52.6212 38.7804 51.678 38.5516 50.78C38.3228 49.882 37.856 49.0623 37.2002 48.4074L35.6159 46.8231C35.2565 46.4631 34.9799 46.029 34.8054 45.5512C34.6309 45.0734 34.5627 44.5633 34.6055 44.0565C34.6483 43.5496 34.8011 43.0582 35.0532 42.6164C35.3054 42.1746 35.6508 41.7931 36.0654 41.4985C36.7747 41.0281 37.6266 40.8219 38.4724 40.916C39.3182 41.0101 40.1041 41.3984 40.6926 42.0131L42.862 44.1811C43.4874 44.8026 44.2615 45.2535 45.1107 45.4908C45.9598 45.728 46.8556 45.7437 47.7126 45.5363C48.5695 45.3289 49.359 44.9054 50.0057 44.3062C50.6525 43.7069 51.1348 42.9519 51.4068 42.1133C52.5161 38.77 52.8291 35.2138 52.3209 31.7282C51.8388 28.374 50.5955 25.1745 48.6863 22.3749" stroke="#412C73" stroke-linecap="round" stroke-linejoin="round"/>
<path d="M23.4436 27.2309C25.5406 27.2309 27.2406 25.5309 27.2406 23.4338C27.2406 21.3367 25.5406 19.6367 23.4436 19.6367C21.3465 19.6367 19.6465 21.3367 19.6465 23.4338C19.6465 25.5309 21.3465 27.2309 23.4436 27.2309Z" stroke="#412C73" stroke-linecap="round" stroke-linejoin="round"/>
<path d="M20.655 48.3559C22.7521 48.3559 24.4521 46.6559 24.4521 44.5588C24.4521 42.4617 22.7521 40.7617 20.655 40.7617C18.5579 40.7617 16.8579 42.4617 16.8579 44.5588C16.8579 46.6559 18.5579 48.3559 20.655 48.3559Z" stroke="#412C73" stroke-linecap="round" stroke-linejoin="round"/>
<path d="M17.195 37.1572C19.2921 37.1572 20.9921 35.4571 20.9921 33.3601C20.9921 31.263 19.2921 29.563 17.195 29.563C15.098 29.563 13.3979 31.263 13.3979 33.3601C13.3979 35.4571 15.098 37.1572 17.195 37.1572Z" stroke="#412C73" stroke-linecap="round" stroke-linejoin="round"/>
<path d="M38.9646 31.7093C38.9667 30.4141 38.5281 29.1567 37.7209 28.1437C36.9137 27.1308 35.7859 26.4226 34.5228 26.1356C33.2598 25.8485 31.9367 25.9997 30.771 26.5642C29.6052 27.1288 28.6662 28.0731 28.1083 29.242L28.0947 29.2258C28.0947 29.2258 25.6897 33.7189 23.1304 34.0791C24.104 36.17 28.6242 39.2967 34.527 37.2817L34.5203 37.2736C35.7817 36.986 36.9082 36.2789 37.7156 35.2679C38.5229 34.2568 38.9633 33.0031 38.9646 31.7093Z" stroke="#412C73" stroke-linecap="round" stroke-linejoin="round"/>
<path d="M34.5474 26.141C35.7458 21.3919 52.9735 4.27118 56.9737 7.9491C60.9739 11.627 43.0393 29.0186 38.7263 30.0708" stroke="#412C73" stroke-linecap="round" stroke-linejoin="round"/>
</svg>
