<svg width="70" height="70" viewBox="0 0 70 70" fill="none" xmlns="http://www.w3.org/2000/svg">
<path d="M15.4348 19.3082L8.15479 21.6955L34.9998 31.2185L61.8433 21.6955L52.7725 18.7191M35.6021 13.0855L34.9998 12.8872L33.7894 13.2839M34.9998 61.9791L13.0008 52.0682L10.2723 28.1749L34.9998 38.5262M34.9998 61.9791V38.5262M34.9998 61.9791L56.9987 52.0668L59.6106 28.1735L34.9998 38.5262" stroke="#412C73" stroke-linecap="round" stroke-linejoin="round"/>
<path d="M8.15625 21.6958L8.82708 27.57L10.2708 28.1737M61.8448 21.6958L61.1769 27.5145L59.6106 28.1737M34.9998 31.2202V38.5264M20.186 55.306L19.069 25.5677M24.3948 57.2018L24.0404 27.3308M49.7785 55.3206L50.8956 25.5837M45.5698 57.2164L45.9242 27.3454M34.24 15.2835C34.24 15.2835 33.6771 12.517 33.1929 11.1972C32.786 10.0918 31.6485 8.021 31.6485 8.021L25.7613 8.77495C26.7785 10.2385 27.5997 11.829 28.204 13.5058C29.1533 16.2008 29.5485 19.5345 29.5165 20.0275C22.5252 16.1381 20.2823 19.6702 19.629 22.8493C19.0063 25.8739 24.8396 28.1227 30.8231 24.872" stroke="#412C73" stroke-linecap="round" stroke-linejoin="round"/>
<path d="M29.5168 20.0274C33.9428 16.297 36.2193 23.2664 34.2476 26.2107C31.3251 30.0111 30.2036 22.3534 29.5168 20.0274ZM29.5168 20.0274C23.7243 16.1526 19.5622 13.8295 16.994 16.5332C12.8334 20.9126 17.7436 23.9809 20.8615 25.3678" stroke="#412C73" stroke-linecap="round" stroke-linejoin="round"/>
<path d="M31.2505 19.0489C36.7951 16.6427 39.8226 17.0802 41.2503 20.2608C42.0524 22.0502 41.1015 25.7602 40.9163 26.0577L33.2338 27.1325" stroke="#412C73" stroke-linecap="round" stroke-linejoin="round"/>
<path d="M41.3629 24.3075C49.7134 26.8989 49.235 22.4904 49.0236 21.4725C48.5102 19.0006 43.3127 16.1831 40.5229 19.0473" stroke="#412C73" stroke-linecap="round" stroke-linejoin="round"/>
<path d="M48.6792 23.9081C48.6792 23.9081 52.1471 22.0094 52.7013 20.2944C53.9132 16.5465 46.9846 10.5717 40.2617 18.75" stroke="#412C73" stroke-linecap="round" stroke-linejoin="round"/>
<path d="M32.7715 18.2028C34.2473 15.4932 35.1442 12.0778 40.4321 8.71631L45.7477 9.11443C46.8152 9.65547 48.3742 12.0194 44.9938 15.0907" stroke="#412C73" stroke-linecap="round" stroke-linejoin="round"/>
<path d="M45.7479 9.11469C42.0496 10.7043 40.8115 14.5324 39.1621 17.9507M25.7615 8.7749C24.0465 11.0834 25.8869 15.7924 26.756 18.2351M45.9229 27.3482L41.0156 25.7951M50.8958 25.5837L47.8931 24.6343" stroke="#412C73" stroke-linecap="round" stroke-linejoin="round"/>
</svg>
