<svg width="55" height="49" viewBox="0 0 55 49" fill="none" xmlns="http://www.w3.org/2000/svg">
<path d="M8.65187 7.7967H46.1106M10.765 47.0929H43.9975M27.3812 1.52295V47.0929M11.3312 13.4048L1.20625 32.7173C1.075 33.0173 1 33.3548 1 33.6923C1 36.3548 5.63125 38.5111 11.3312 38.5111C17.0312 38.5111 21.6625 36.3548 21.6625 33.6923C21.6625 33.3548 21.5875 33.0173 21.4562 32.7173L11.3312 13.4048ZM11.3312 13.4048V7.7967M1.20625 33.6886H21.4562M43.4312 13.4048L53.5562 32.7173C53.6875 33.0173 53.7625 33.3548 53.7625 33.6923C53.7625 36.3548 49.1312 38.5111 43.4312 38.5111C37.7312 38.5111 33.1 36.3548 33.1 33.6923C33.1 33.3548 33.175 33.0173 33.3062 32.7173L43.4312 13.4048ZM43.4312 13.4048V7.7967M53.5562 33.6886H33.3062" stroke="#554874" stroke-width="2" stroke-linecap="round" stroke-linejoin="round"/>
</svg>
