<svg width="65" height="65" viewBox="0 0 65 65" fill="none" xmlns="http://www.w3.org/2000/svg">
<path d="M25.3282 15.9627H7.83505M48.8257 14.377L31.3623 18.5139M7.48025 9.01852C7.45946 9.74056 7.44862 10.4629 7.44775 11.1852C7.44775 25.951 11.5346 37.9205 16.5748 37.9205C21.615 37.9205 25.7019 25.9497 25.7019 11.1865C25.7001 10.4562 25.6893 9.73397 25.6694 9.01988M29.6547 11.7512C29.7992 12.4518 29.9558 13.1569 30.1246 13.8664C33.5398 28.2314 40.2849 38.9294 45.1884 37.7634C50.0918 36.5975 51.2984 24.0078 47.8832 9.64415C47.715 8.94117 47.5371 8.24055 47.3496 7.54248M16.5748 38.6802V56.1733M8.2088 56.1733H24.9409M45.3644 38.5028L49.4134 55.522M41.2735 57.4571L57.5519 53.5855" stroke="#412C73" stroke-linecap="round" stroke-linejoin="round"/>
</svg>
