<svg width="80" height="80" viewBox="0 0 80 80" fill="none" xmlns="http://www.w3.org/2000/svg">
<path d="M42.3265 40.7366C39.0382 41.4266 35.7348 42.1016 33.7098 40.7366C31.6998 39.3866 30.9815 35.9983 31.1965 33.5566C31.4906 31.7854 32.1039 30.0822 33.0065 28.53C33.4232 27.425 33.1215 26.6766 33.3515 26.0166C33.7878 25.2757 34.4056 24.658 35.1465 24.2216M11.8232 25.6583C11.3686 23.5329 11.123 21.3682 11.0898 19.195C11.1684 18.3679 11.5529 17.6 12.1682 17.0416C12.4682 16.595 12.3965 15.9916 12.8998 15.605C13.3882 15.2316 14.4798 15.0733 15.1265 14.6133C15.7732 14.1533 16.0015 13.3933 17.0215 12.9183C18.341 12.4245 19.7558 12.2381 21.1582 12.3733C22.4365 12.5166 23.1682 12.9616 23.7415 12.9483C24.3315 12.9483 24.7332 12.4733 25.1215 12.5316C25.4948 12.5883 25.8248 13.1916 26.5282 13.45C27.3292 13.5672 28.1211 13.7398 28.8982 13.9666C29.4732 14.2966 29.5732 15.0733 30.0482 15.375C30.5215 15.6916 31.3815 15.5466 31.9148 15.9633C32.1836 16.2489 32.387 16.5896 32.5108 16.9618C32.6345 17.334 32.6757 17.7286 32.6315 18.1183C32.5222 18.6985 32.369 19.2696 32.1732 19.8266C32.1015 20.3433 32.3165 20.9033 32.2732 21.3483C32.2 21.7499 32.0537 22.1346 31.8415 22.4833C31.7132 22.8283 31.7132 23.1733 31.5548 23.5033C31.3556 23.8673 31.0931 24.1929 30.7798 24.465" stroke="#412C73" stroke-linecap="round" stroke-linejoin="round"/>
<path d="M15.04 31.7616C15.2647 33.1593 15.757 34.5005 16.49 35.7116C17.379 36.7668 18.4801 37.6232 19.7217 38.2249C20.7556 38.8972 21.8348 39.497 22.9517 40.0199C23.174 40.1248 23.4168 40.1791 23.6625 40.1791C23.9083 40.1791 24.1511 40.1248 24.3734 40.0199C25.0286 39.9582 25.6522 39.7094 26.17 39.3033C26.9176 38.4472 27.5236 37.4772 27.965 36.4299C28.6992 35.1772 29.3056 33.8539 29.775 32.4799C29.9602 31.4105 30.0798 30.3307 30.1334 29.2466C30.4355 28.1848 30.6754 27.1063 30.8517 26.0166C30.8818 24.3337 30.7619 22.6515 30.4934 20.9899C30.295 21.2735 30.0178 21.4927 29.696 21.6201C29.3742 21.7475 29.0221 21.7776 28.6834 21.7066C27.3311 21.3335 26.0103 20.8542 24.7334 20.2733C23.5225 19.696 22.1764 19.462 20.8417 19.5966C20.4446 19.6596 20.0681 19.8163 19.7435 20.0537C19.4189 20.291 19.1555 20.6023 18.975 20.9616C18.945 21.2783 19.6634 21.0766 19.6634 21.4349C19.3891 22.1366 18.8958 22.731 18.2567 23.1299C17.5817 23.5466 16.9784 23.4466 16.7334 24.2799C16.5827 25.4519 16.5015 26.6317 16.49 27.8133C16.36 28.7749 15.9867 28.9466 15.6284 29.1183M59.2 34.2749C59.675 35.7934 60.7068 37.0759 62.0884 37.8649C63.9815 38.7729 66.087 39.1452 68.1767 38.9416C68.7406 38.9145 69.2745 38.6794 69.6753 38.2817C70.076 37.884 70.3152 37.352 70.3467 36.7883C70.475 35.8399 70.36 34.8483 70.46 33.7999C70.65 32.7672 70.751 31.72 70.7617 30.6699C70.5752 29.79 70.3062 28.9295 69.9584 28.0999C69.7417 27.3233 69.8 26.5916 69.6134 25.9016C69.3571 25.1722 68.9943 24.4847 68.5367 23.8616C68.0767 23.1449 67.5884 22.3399 66.755 22.4266C65.7801 22.7818 64.8613 23.2751 64.0267 23.8916C63.3367 24.2499 63.1084 23.9633 62.49 24.1066C62.0101 24.2563 61.5662 24.5032 61.1857 24.8318C60.8052 25.1603 60.4964 25.5636 60.2784 26.0166C59.7034 27.1949 59.5617 28.9749 59.215 29.6066C58.8567 30.2533 58.31 29.7499 57.765 29.2483" stroke="#412C73" stroke-linecap="round" stroke-linejoin="round"/>
<path d="M56.1569 31.7469C55.4989 30.581 54.8998 29.3828 54.3619 28.1569C53.7098 26.8208 53.4603 25.3239 53.6436 23.8486C53.7744 22.9147 54.097 22.0179 54.5912 21.2148C55.0854 20.4117 55.7405 19.7195 56.5153 19.1819C58.4885 18.2999 60.6535 17.934 62.8069 18.1186C63.888 17.8166 65.0321 17.8248 66.1088 18.1422C67.1854 18.4596 68.151 19.0734 68.8953 19.9136C69.0925 20.0893 69.2322 20.3203 69.2964 20.5765C69.3606 20.8327 69.3463 21.1023 69.2553 21.3502C71.0636 22.4269 70.7053 23.8636 69.6286 26.0169M40.9053 59.4069C32.2736 64.7936 26.5286 60.8436 34.0686 46.1236C33.5896 46.0119 33.0875 46.0561 32.6354 46.2497C32.1833 46.4434 31.8049 46.7764 31.5553 47.2002C30.7225 48.9471 30.0032 50.7458 29.4019 52.5852C28.8397 54.0582 27.9847 55.4019 26.8886 56.5352C25.7512 57.5731 24.7863 58.7855 24.0303 60.1269C23.6305 61.4125 23.6253 62.7883 24.0153 64.0769M42.6853 60.8436C41.6086 61.9202 42.3269 65.1519 39.8136 67.6652M55.4386 42.5169C56.4086 42.1764 57.4642 42.1681 58.4394 42.4933C59.4146 42.8186 60.2539 43.4589 60.8253 44.3136C62.3735 44.9033 63.7368 45.8944 64.7753 47.1852C66.0525 49.2127 67.0795 51.3874 67.8336 53.6619C69.9736 48.9952 69.9886 44.3286 67.1003 42.5319C69.1406 43.321 70.9837 44.5469 72.5003 46.1236M52.0203 47.2002C59.9203 51.1502 52.3803 59.7669 48.7886 66.9469" stroke="#412C73" stroke-linecap="round" stroke-linejoin="round"/>
<path d="M39.095 23.8633C40.5104 24.3604 41.6755 25.3909 42.3417 26.735C43.091 28.6831 43.2162 30.8159 42.7 32.8383C42.14 34.605 40.8467 35.4233 41.1633 36.6883C41.48 37.9383 43.4033 39.6166 43.4183 40.7383C43.4183 41.8716 41.5083 42.46 40.8767 44.2416C40.26 46.0216 40.89 48.98 40.5317 51.15C40.1867 53.3333 38.8217 54.6966 38.7367 55.8166C38.665 56.9366 39.87 57.8116 40.5317 58.3283C41.2067 58.8616 41.35 59.0466 41.2483 59.4066C41.0712 59.9134 40.8304 60.3956 40.5317 60.8416C41.9672 62.0394 43.0444 61.3216 43.7633 58.6883C46.3967 58.4483 47.9522 55.815 48.43 50.7883C50.5933 51.0283 51.7944 49.5927 52.0333 46.4816C53.0533 45.5483 54.0733 44.5983 54.1883 43.6083C54.2883 42.6316 53.4717 41.6116 53.455 40.7366C53.455 39.875 54.245 39.1566 54.1717 38.2233C54.115 37.3033 53.1683 36.17 53.11 35.35C53.0383 34.5466 53.8433 34.0583 53.8133 33.1966C53.561 32.2078 53.1799 31.2563 52.68 30.3666C52.4067 29.62 52.7517 29.3616 52.7367 28.17C52.6939 26.4645 52.2666 24.7906 51.4867 23.2733C50.5808 21.7497 49.2196 20.5488 47.595 19.84C46.2848 19.225 44.8632 18.883 43.4167 18.835C42.6906 18.9019 41.9703 19.0216 41.2617 19.1933C40.7167 19.2366 40.185 18.9783 39.2367 19.0066C38.0685 19.0868 36.9271 19.3943 35.8767 19.9116C34.9062 20.3362 34.1215 21.0967 33.6667 22.0533C33.4341 22.8824 33.4538 23.7621 33.7233 24.58M33.35 61.5616C33.6681 60.6481 34.1886 59.8182 34.8726 59.1342C35.5566 58.4502 36.3864 57.9297 37.3 57.6116M7.5 42.5333C8.61499 41.4877 9.97961 40.7457 11.4633 40.3783C13.8478 46.3627 16.955 49.1155 20.785 48.6366C22.6994 52.2266 23.4794 54.6155 23.125 55.8033C24.3847 53.5031 24.7672 50.8241 24.2017 48.2633C26.4717 46.1189 26.5294 43.9694 24.375 41.815C26.3523 42.5636 28.1808 43.6578 29.775 45.0466M21.8767 33.9166C22.4893 34.3576 23.1952 34.6517 23.9397 34.776C24.6842 34.9002 25.4474 34.8514 26.17 34.6333" stroke="#412C73" stroke-linecap="round" stroke-linejoin="round"/>
<path d="M33.3496 36.4281C33.8498 36.9599 34.4677 37.3668 35.1537 37.6164C35.8397 37.8659 36.5747 37.951 37.2996 37.8648M66.2096 34.9931C66.5298 34.665 66.93 34.4261 67.3709 34.3001C67.8117 34.1741 68.2777 34.1654 68.7229 34.2748" stroke="#412C73" stroke-linecap="round" stroke-linejoin="round"/>
</svg>
