<svg width="60" height="61" viewBox="0 0 60 61" fill="none" xmlns="http://www.w3.org/2000/svg">
<path d="M33.98 3.60059L34.0325 4.47559C34.3375 9.50184 40.49 11.7456 43.9575 8.09434L44.5625 7.45809L44.2537 8.28059C42.4887 12.9956 47.1975 17.5468 51.85 15.6218L52.6613 15.2868L52.045 15.9118C48.5138 19.5018 50.9638 25.5743 55.9975 25.7093L56.875 25.7318L56.0575 26.0531C51.3725 27.8968 51.1413 34.4406 55.6838 36.6106L56.4762 36.9893L55.5988 36.9506C50.5687 36.7281 47.695 42.6131 50.9637 46.4431L51.5338 47.1106L50.7475 46.7181C46.2425 44.4693 41.225 48.6768 42.6525 53.5043L42.9012 54.3468L42.3425 53.6681C39.1425 49.7818 32.8463 51.5843 32.1875 56.5756L32.0725 57.4456L31.8375 56.5993C30.495 51.7468 24.01 50.8331 21.3775 55.1243L20.9188 55.8731L21.0488 55.0043C21.795 50.0256 16.2437 46.5518 12.0925 49.4018L11.3688 49.8993L11.8412 49.1581C14.5487 44.9131 10.89 39.4831 5.93875 40.3981L5.07625 40.5568L5.8075 40.0731C10.0075 37.2968 8.87375 30.8468 3.97875 29.6693L3.125 29.4631L3.99125 29.3193C8.9575 28.4906 10.5438 22.1381 6.55125 19.0693L5.855 18.5356L6.705 18.7556C11.58 20.0181 15.6125 14.8606 13.2125 10.4343L12.795 9.66309L13.4825 10.2093C17.42 13.3468 23.2038 10.2743 22.8113 5.25559L22.7425 4.38059L23.1475 5.15934C25.47 9.62559 32.0025 9.17184 33.685 4.42684L33.98 3.60059Z" stroke="#554874" stroke-width="2" stroke-linecap="round" stroke-linejoin="round"/>
<path d="M17.5039 13.9552L30.7752 10.8652L34.0939 25.7065L46.5627 23.4727L49.3089 36.124L23.4489 40.799L17.5039 13.9552Z" stroke="#554874" stroke-width="2" stroke-linecap="round" stroke-linejoin="round"/>
<path d="M31.5274 14.2256C37.5736 14.6881 42.6949 18.4631 45.0799 23.7381M18.6349 19.0656C15.6635 22.1013 14.0011 26.1814 14.0049 30.4293C14.0049 39.3943 21.2861 46.6756 30.2649 46.6756C36.9574 46.6756 42.7086 42.6356 45.1924 36.8693" stroke="#554874" stroke-width="2" stroke-linecap="round" stroke-linejoin="round"/>
</svg>
