<svg width="34" height="31" viewBox="0 0 34 31" fill="none" xmlns="http://www.w3.org/2000/svg">
<path d="M32.3721 0.565878C32.0308 0.282587 31.6192 0.0970663 31.1809 0.0290402C30.7426 -0.0389858 30.2941 0.0130254 29.8831 0.179544L1.51448 11.6318C1.05605 11.8202 0.665769 12.1435 0.395432 12.5589C0.125096 12.9743 -0.0125061 13.4621 0.000893383 13.9576C0.0142929 14.453 0.17806 14.9327 0.470455 15.3328C0.762849 15.733 1.17004 16.0348 1.63798 16.1981L7.75914 18.323L11.0762 29.2891C11.0826 29.3113 11.1031 29.3255 11.1126 29.3461C11.1473 29.4334 11.1971 29.5138 11.2599 29.5836C11.3564 29.6902 11.4801 29.7685 11.6177 29.81C11.6336 29.8164 11.6446 29.8306 11.6605 29.8338H11.67L11.6747 29.8354C11.7972 29.8616 11.9245 29.855 12.0436 29.8164L12.0832 29.8085C12.1975 29.7681 12.3009 29.702 12.3856 29.6153C12.3951 29.6042 12.411 29.6026 12.4205 29.5931L17.1911 24.327L24.153 29.7182C24.5757 30.0491 25.0966 30.228 25.6334 30.228C26.7956 30.228 27.7978 29.4142 28.0369 28.279L33.2017 2.91713C33.2899 2.48658 33.2592 2.04016 33.1131 1.6257C32.9669 1.21123 32.7108 0.84433 32.3721 0.564294M12.8068 20.405L11.6874 25.847L9.35198 18.1235L20.9341 12.091L13.0221 20.0045C12.9127 20.1141 12.8379 20.2533 12.8068 20.405ZM26.4852 27.9607C26.4555 28.1043 26.3894 28.2378 26.2931 28.3484C26.1969 28.4591 26.0739 28.5431 25.9358 28.5925C25.801 28.6435 25.6553 28.659 25.5127 28.6374C25.3702 28.6157 25.2356 28.5577 25.122 28.469L17.5806 22.628C17.4229 22.5063 17.2252 22.4485 17.0268 22.4661C16.8284 22.4838 16.644 22.5755 16.5102 22.723L13.19 26.3821L14.3078 20.956L25.6904 9.57188C25.8237 9.43814 25.9048 9.26116 25.9191 9.07287C25.9334 8.88459 25.8799 8.6974 25.7683 8.54509C25.6567 8.39278 25.4943 8.28537 25.3104 8.24226C25.1266 8.19914 24.9334 8.22315 24.7657 8.30996L8.35764 16.8568L2.15573 14.7003C1.99179 14.6452 1.84889 14.5408 1.74657 14.4013C1.64426 14.2619 1.58753 14.0942 1.58414 13.9213C1.57578 13.7465 1.62226 13.5735 1.71708 13.4264C1.8119 13.2794 1.95032 13.1656 2.11298 13.1011L30.4768 1.64888C30.6223 1.58785 30.7818 1.56827 30.9378 1.5923C31.0937 1.61633 31.2399 1.68304 31.3603 1.78504C31.4801 1.88126 31.5705 2.00906 31.6215 2.154C31.6724 2.29893 31.6817 2.45523 31.6485 2.60521L26.4852 27.9607Z" fill="white"/>
</svg>
