<svg width="32" height="32" viewBox="0 0 32 32" fill="none" xmlns="http://www.w3.org/2000/svg">
<path d="M31 16C31 24.2845 24.2845 31 16 31C13.3668 31.0036 10.7795 30.3112 8.5 28.993L1 30.25L2.248 22C1.42352 20.1072 0.998655 18.0646 1 16C1 7.7155 7.7155 1 16 1C24.2845 1 31 7.7155 31 16Z" stroke="white" stroke-width="1.5" stroke-linecap="round" stroke-linejoin="round"/>
<path d="M17.4401 18.802L20.5601 18.193L23.5001 19.3225V22.057C23.5001 22.9675 22.7171 23.662 21.8351 23.467C19.5506 22.966 15.4001 21.706 12.5171 18.802C9.77206 16.0375 8.83456 12.187 8.51506 10.0615C8.38756 9.211 9.06106 8.5 9.91456 8.5H12.7556L13.8581 11.4535L13.2746 14.605" stroke="white" stroke-width="1.5" stroke-linecap="round" stroke-linejoin="round"/>
</svg>
